<?xml version="1.0" encoding="UTF-8" standalone="no"?>
<!-- Created with Inkscape (http://www.inkscape.org/) -->

<svg
   width="240.40654mm"
   height="205.81921mm"
   viewBox="0 0 240.40654 205.81921"
   version="1.1"
   id="svg128363"
   inkscape:version="1.1.1 (3bf5ae0d25, 2021-09-20, custom)"
   sodipodi:docname="back2norm.svg"
   xmlns:inkscape="http://www.inkscape.org/namespaces/inkscape"
   xmlns:sodipodi="http://sodipodi.sourceforge.net/DTD/sodipodi-0.dtd"
   xmlns="http://www.w3.org/2000/svg"
   xmlns:svg="http://www.w3.org/2000/svg">
  <sodipodi:namedview
     id="namedview128365"
     pagecolor="#ffffff"
     bordercolor="#999999"
     borderopacity="1"
     inkscape:pageshadow="0"
     inkscape:pageopacity="0"
     inkscape:pagecheckerboard="0"
     inkscape:document-units="mm"
     showgrid="false"
     inkscape:zoom="0.64052329"
     inkscape:cx="590.92309"
     inkscape:cy="562.04045"
     inkscape:window-width="942"
     inkscape:window-height="1034"
     inkscape:window-x="8"
     inkscape:window-y="32"
     inkscape:window-maximized="0"
     inkscape:current-layer="layer1" />
  <defs
     id="defs128360" />
  <g
     inkscape:label="Layer 1"
     inkscape:groupmode="layer"
     id="layer1"
     transform="translate(51.219938,0.4673233)">
    <ellipse
       cx="-5.433197"
       cy="86.990196"
       rx="25.233965"
       ry="51.487484"
       fill="#6c63ff"
       id="ellipse27784"
       transform="scale(-1,1)"
       style="fill:#93c3b6;fill-opacity:1;stroke-width:0.264583" />
    <path
       d="M 5.6645523,87.524216 C 4.4058235,65.112081 1.8697129,49.973385 1.8442071,49.823081 l 0.5502804,-0.09321 c 0.0254,0.150442 2.5661143,15.313395 3.8268804,37.754416 1.1634787,20.711753 1.4442016,52.039513 -3.8267481,83.664903 l -0.550545,-0.0916 C 7.1060287,139.48592 6.8259937,108.20558 5.6645523,87.524216 Z"
       fill="#3f3d56"
       id="path27786"
       style="stroke-width:0.264583" />
    <rect
       x="-46.905796"
       y="75.568642"
       width="25.877922"
       height="0.55819672"
       transform="matrix(-0.88165868,-0.47188767,-0.47188767,0.88165868,0,0)"
       fill="#3f3d56"
       id="rect27788"
       style="stroke-width:0.264583" />
    <rect
       x="-87.376312"
       y="12.963184"
       width="0.55819672"
       height="25.877922"
       transform="matrix(-0.47165224,-0.88178465,-0.88178465,0.47165224,0,0)"
       fill="#3f3d56"
       id="rect27790"
       style="stroke-width:0.264583" />
    <ellipse
       cx="156.44981"
       cy="66.328941"
       rx="32.736782"
       ry="66.796265"
       fill="#6c63ff"
       id="ellipse27792"
       style="fill:#93c3b6;fill-opacity:1;stroke-width:0.264583" />
    <path
       d="m 156.05226,67.013192 c 1.63327,-29.080653 4.92416,-48.723523 4.95724,-48.9186 l -0.52176,-0.08837 c -0.0331,0.195209 -3.3282,19.861069 -4.96332,48.969112 -1.50945,26.865156 -1.87352,67.499886 4.96305,108.519606 l 0.52203,-0.0868 c -6.82811,-40.96907 -6.46457,-81.558581 -4.95724,-108.394927 z"
       fill="#3f3d56"
       id="path27794"
       style="stroke-width:0.264583" />
    <rect
       x="105.25161"
       y="134.26804"
       width="33.572269"
       height="0.52919841"
       transform="rotate(-28.1571)"
       fill="#3f3d56"
       id="rect27796"
       style="stroke-width:0.264583" />
    <rect
       x="4.8816776"
       y="139.04332"
       width="0.52919841"
       height="33.572269"
       transform="rotate(-61.8584)"
       fill="#3f3d56"
       id="rect27798"
       style="stroke-width:0.264583" />
    <ellipse
       cx="117.00726"
       cy="126.25966"
       rx="12.231325"
       ry="24.956846"
       fill="#e6e6e6"
       id="ellipse27800"
       style="stroke-width:0.264583" />
    <path
       d="m 116.99659,127.33487 0.0725,0.13535 11.05906,-5.91927 -0.24977,-0.46664 -10.85876,5.8121 c 0.60086,-11.05995 1.82985,-18.4845 1.85473,-18.63069 l -0.52176,-0.0884 c -0.027,0.15965 -1.48723,8.97639 -2.00554,21.73417 l -10.9519,-5.86201 -0.24977,0.46663 11.05905,5.91928 0.13203,-0.2468 c -0.4146,10.52972 -0.1823,23.69598 2.01613,36.88565 l 0.52202,-0.0868 c -2.39686,-14.38076 -2.44978,-28.73448 -1.87801,-39.65258 z"
       fill="#3f3d56"
       id="path27802"
       style="stroke-width:0.264583" />
    <path
       d="M 178.98264,180.97484 C 113.83376,160.3513 54.758492,161.44994 16.672833,166.00339 c -41.261056,4.93305 -67.443296,14.86656 -67.702853,14.96629 l -0.189918,-0.49403 c 0.260324,-0.1 26.504212,-10.05701 67.829985,-14.99779 a 393.41435,393.41435 0 0 1 73.260505,-1.87404 382.14432,382.14432 0 0 1 89.271898,16.86665 z"
       fill="#3f3d56"
       id="path27804"
       style="stroke-width:0.264583" />
    <path
       d="m -45.615957,175.14629 c 0,0 -0.182721,-3.82847 -3.928295,-3.38346"
       fill="#3f3d56"
       id="path27806"
       style="stroke-width:0.264583" />
    <circle
       cx="44.557549"
       cy="169.62839"
       r="1.8746417"
       fill="#6c63ff"
       id="circle27808"
       transform="scale(-1,1)"
       style="stroke-width:0.264583" />
    <rect
       x="44.252399"
       y="172.78517"
       width="0.52916664"
       height="3.7041667"
       fill="#3f3d56"
       id="rect27810"
       transform="scale(-1,1)"
       style="stroke-width:0.264583" />
    <path
       d="m 100.78631,175.94004 c 0,0 0.18272,-3.82847 3.92832,-3.38346"
       fill="#3f3d56"
       id="path27812"
       style="stroke-width:0.264583" />
    <circle
       cx="99.727959"
       cy="170.42213"
       r="1.8746417"
       fill="#6c63ff"
       id="circle27814"
       style="stroke-width:0.264583" />
    <rect
       x="99.422806"
       y="173.57892"
       width="0.52916664"
       height="3.7041667"
       fill="#3f3d56"
       id="rect27816"
       style="stroke-width:0.264583" />
    <path
       d="m -1.4305408,169.32546 c 0,0 -0.1827212,-3.82848 -3.9282951,-3.38347"
       fill="#3f3d56"
       id="path27818"
       style="stroke-width:0.264583" />
    <circle
       cx="0.37213346"
       cy="163.80756"
       r="1.8746417"
       fill="#6c63ff"
       id="circle27820"
       transform="scale(-1,1)"
       style="stroke-width:0.264583" />
    <rect
       x="0.066984132"
       y="166.96434"
       width="0.52916664"
       height="3.7041667"
       fill="#3f3d56"
       id="rect27822"
       transform="scale(-1,1)"
       style="stroke-width:0.264583" />
    <path
       d="m -30.270124,164.29838 c 0,0 -0.182721,-3.82848 -3.928295,-3.38347"
       fill="#3f3d56"
       id="path27824"
       style="stroke-width:0.264583" />
    <circle
       cx="29.211716"
       cy="158.78047"
       r="1.8746417"
       fill="#6c63ff"
       id="circle27826"
       transform="scale(-1,1)"
       style="stroke-width:0.264583" />
    <rect
       x="28.906567"
       y="161.93726"
       width="0.52916664"
       height="3.7041667"
       fill="#3f3d56"
       id="rect27828"
       transform="scale(-1,1)"
       style="stroke-width:0.264583" />
    <path
       d="m 89.409224,171.44213 c 0,0 0.182722,-3.82848 3.928295,-3.38347"
       fill="#3f3d56"
       id="path27830"
       style="stroke-width:0.264583" />
    <circle
       cx="88.350876"
       cy="165.92422"
       r="1.8746417"
       fill="#6c63ff"
       id="circle27832"
       style="stroke-width:0.264583" />
    <rect
       x="88.045723"
       y="169.08101"
       width="0.52916664"
       height="3.7041667"
       fill="#3f3d56"
       id="rect27834"
       style="stroke-width:0.264583" />
    <path
       d="m 170.76918,163.76733 10.88972,16.14694 -10.13883,10.13878 -1.31419,-2.62857 2.25293,-5.25715 c 0,0 -0.37544,-4.88163 -1.68963,-6.19591 -1.31445,-1.31429 -7.13475,-9.2 -7.13475,-9.2 z"
       fill="#ffb8b8"
       id="path27836"
       style="stroke-width:0.264583" />
    <path
       d="m 156.87512,111.57142 c 0,0 2.06507,3.2682 -2.25346,17.34983 0,0 20.14273,33.99577 16.95106,36.24883 -3.19193,2.25307 -11.82926,7.23927 -14.08245,5.73723 -2.25292,-1.50204 -18.63963,-52.38895 -18.63963,-52.38895 z"
       fill="#2f2e41"
       id="path27838"
       style="fill:#e93c8c;fill-opacity:1;stroke-width:0.264583" />
    <path
       d="m 179.68749,177.00407 3.2856,3.28571 c 1.68989,1.6898 2.81649,4.13061 -0.37545,6.19592 -3.19193,2.06531 -14.26924,9.76327 -18.02447,7.32245 -3.75523,-2.44082 4.50612,-4.69388 4.50612,-4.69388 0,0 1.36604,-5.06495 2.09126,-3.94064 0.72496,1.12432 0.72496,3.37738 0.72496,3.37738 z"
       fill="#2f2e41"
       id="path27840"
       style="stroke-width:0.264583" />
    <path
       d="m 139.97724,172.59182 c 0,0 -6.00816,11.07755 -6.00816,12.39184 0,1.31429 0.37544,5.06939 0.37544,5.06939 l -11.45302,2.81632 -3.94282,-1.87755 1.31419,-3.37959 c 0,0 7.13475,-2.44081 8.63679,-7.13469 1.50204,-4.69388 3.19194,-9.57551 3.19194,-9.57551 z"
       fill="#ffb8b8"
       id="path27842"
       style="stroke-width:0.264583" />
    <circle
       cx="146.92404"
       cy="54.493893"
       r="7.8857131"
       fill="#ffb8b8"
       id="circle27844"
       style="stroke-width:0.264583" />
    <path
       d="m 144.8588,61.253054 3.76502,10.817511 8.2513,-3.68281 c 0,0 -5.63245,-8.636743 -5.63245,-9.763273 z"
       fill="#ffb8b8"
       id="path27846"
       style="stroke-width:0.264583" />
    <path
       d="m 143.73247,99.742848 h 9.95098 c 0,0 7.13449,10.889792 3.00408,22.342852 -0.63262,1.75388 -1.26048,4.21065 -1.88728,7.11525 -1.44145,6.67991 -2.87628,15.72839 -4.3471,24.04309 -2.0656,11.67929 -4.20158,21.91082 -6.52357,22.09658 -4.69371,0.37551 -13.82157,0.31285 -13.82157,-1.5647 0,-1.87755 6.114,-56.19634 6.114,-56.19634 l 1.31445,-2.25306 0.24844,-9.81403 a 5.9195017,5.9195017 0 0 1 5.94757,-5.769642 z"
       fill="#2f2e41"
       id="path27848"
       style="fill:#e93c8c;fill-opacity:1;stroke-width:0.264583" />
    <path
       d="m 133.87515,184.88978 c 0,0 2.15927,3.66123 1.59597,6.2898 -0.5633,2.62857 -1.50204,2.25306 -5.63272,2.62857 -4.13041,0.37551 -18.21206,0.37551 -18.21206,-2.25306 0,-2.62857 10.98471,-6.04216 11.03101,-4.99251 0.0463,1.04965 0.42201,3.11496 -0.70459,3.49047 -1.12659,0.37551 -0.0939,0.0939 -0.0939,0.0939 z"
       fill="#2f2e41"
       id="path27850"
       style="stroke-width:0.264583" />
    <path
       d="m 144.86039,123.17774 c 0,0 -0.81677,13.33732 -6.26428,9.36679 -5.44724,-3.97052 2.12302,-11.14285 2.12302,-11.14285 z"
       fill="#ffffff"
       id="path27852"
       style="stroke-width:0.264583" />
    <path
       d="m 155.73291,105.61212 a 1.5813908,1.5813908 0 0 0 1.61872,-0.19163 1.658739,1.658739 0 0 0 0.61436,-1.04618 c 0.7874,-4.540395 1.74652,-17.127605 2.2987,-23.492509 0.69295,-7.986676 -2.76886,-14.172591 -2.7977,-14.210242 l -2.0402,-2.80507 a 1.6012319,1.6012319 0 0 0 -1.91744,-0.538236 c 0,0 -6.36905,6.607844 -6.3926,6.862968 -0.0997,1.095545 -0.85778,3.523343 -4.8088,7.474268 -4.32276,4.32295 -4.34684,8.09593 -4.25106,9.149395 q 0.008,0.103888 0.0106,0.20761 a 4.6315524,4.6315524 0 0 0 0.1905,1.396865 c 1.81055,5.708518 0.39265,12.542891 -1.88436,19.676841 a 1.6089894,1.6089894 0 0 0 0.6485,1.74599 c 0.66489,0.45243 -0.13256,-0.2189 0.10477,0.0718 1.56924,1.92299 3.82773,-0.75716 6.41085,-3.68158 0.89985,-1.01872 1.91982,-2.17339 3.12209,-3.37546 1.65259,-1.65286 4.81065,2.11875 6.27909,2.11875 a 6.8183971,6.8183971 0 0 1 2.79506,0.63644 z"
       fill="#575a89"
       id="path27854"
       style="fill:#912f2f;fill-opacity:1;stroke-width:0.264583" />
    <path
       d="m 156.60842,69.583979 c 0,0 4.12459,3.478326 1.78144,7.989342 -2.34315,4.511016 -2.03174,7.838112 -2.03174,7.838112 0,0 -0.62389,30.989237 -7.94544,29.483607 l -3.33057,9.19493 -6.01504,-2.17096 3.47821,-8.11014 c 0,0 -2.7858,-0.17325 -1.97167,-2.07137 0.57176,-1.33317 3.65204,-15.800572 5.4348,-24.294535 0.75565,-3.599448 1.27821,-6.126202 1.27821,-6.126202 0,0 2.36987,-12.671304 9.3218,-11.732784 z"
       fill="#575a89"
       id="path27856"
       style="fill:#a53d38;fill-opacity:1;stroke-width:0.264583" />
    <polygon
       points="788.763,324.281 779.998,381.79 784.727,320.297 "
       opacity="0.2"
       id="polygon27858"
       transform="matrix(0.26458333,0,0,0.26458333,-51.219938,-0.46733116)" />
    <path
       d="m 138.32068,50.99991 c 0,0 -1.32583,-10.317493 9.4914,-6.934147 0,0 7.72557,-1.417547 10.25922,8.246086 l 2.5654,10.129872 -1.25042,-0.680508 -0.58288,1.274088 -2.02592,0.513077 -0.86677,-1.72076 -0.41963,2.08965 -16.59361,1.654265 c 0,0 7.43188,-4.395258 7.54989,-12.272624 l -1.41579,1.495973 z"
       fill="#2f2e41"
       id="path27860"
       style="stroke-width:0.264583" />
    <polygon
       points="763.014,583.199 776.999,490.013 765.625,590.611 "
       opacity="0.2"
       id="polygon27862"
       transform="matrix(0.26458333,0,0,0.26458333,-51.219938,-0.46733116)" />
    <circle
       cx="156.70795"
       cy="44.166782"
       r="4.1725268"
       fill="#2f2e41"
       id="circle27864"
       style="stroke-width:0.264583" />
    <path
       d="m 152.40868,43.145289 a 4.1692433,4.1692433 0 0 1 4.17037,-3.899816 c -0.086,-0.01093 -0.17145,-0.02421 -0.25929,-0.02987 a 4.1725292,4.1725292 0 1 0 -0.53552,8.327858 c 0.0878,0.0056 0.17436,0.0034 0.26114,0.0036 a 4.1692433,4.1692433 0 0 1 -3.6367,-4.401774 z"
       fill="#2f2e41"
       id="path27866"
       style="stroke-width:0.264583" />
    <polygon
       points="740.865,342.202 726.99,416.567 744.974,334.43 "
       opacity="0.2"
       id="polygon27868"
       transform="matrix(0.26458333,0,0,0.26458333,-51.219938,-0.46733116)" />
    <path
       d="m 145.02946,60.176623 -2.13969,1.613191 c -2.20345,-1.108908 -3.8563,-3.674623 -4.45691,-6.123469 l 2.33151,-1.176438 c 0.18336,2.497678 1.95633,4.158192 4.26509,5.686716 z"
       fill="#ffffff"
       id="path27870"
       style="stroke-width:0.264583" />
    <path
       d="m 145.91793,54.845322 h -5.33109 a 0.17771004,0.17771004 0 0 1 0,-0.35542 h 5.33109 a 0.17771004,0.17771004 0 0 1 0,0.35542 z"
       fill="#ffffff"
       id="path27872"
       style="stroke-width:0.264583" />
    <path
       d="m 144.85192,60.176623 a 0.17755394,0.17755394 0 0 1 -0.1651,-0.243657 l 1.42187,-3.554198 a 0.17756981,0.17756981 0 1 1 0.32967,0.131894 l -1.4216,3.554199 a 0.17740841,0.17740841 0 0 1 -0.16484,0.111762 z"
       fill="#ffffff"
       id="path27874"
       style="stroke-width:0.264583" />
    <ellipse
       cx="146.27654"
       cy="55.119675"
       rx="1.3039143"
       ry="1.8254794"
       fill="#ffb8b8"
       id="ellipse27876"
       style="stroke-width:0.264583" />
    <polygon
       points="428.974,183.54 399.191,230.876 451.677,242.887 473.853,201.062 "
       fill="#2f2e41"
       id="polygon27878"
       transform="matrix(0.26458333,0,0,0.26458333,-51.219938,-0.46733116)" />
    <path
       d="m 61.777544,120.18977 c 0,0 -4.463944,10.22985 -4.463944,13.2058 0,0 1.766993,8.09088 1.208987,10.32285 l -1.952969,4.18494 -4.09194,-1.67398 -1.115986,-11.15983 0.186002,-17.85574 z"
       fill="#ffb9b9"
       id="path27880"
       style="stroke-width:0.264583" />
    <path
       d="m 64.288492,58.996682 c 0,0 0.372005,6.13791 -0.372004,7.997881 -0.744008,1.85997 2.789978,5.39392 2.789978,5.39392 l 5.579931,-7.253891 c 0,0 -3.719936,-3.719944 -2.789952,-7.811884 z"
       fill="#ffb9b9"
       id="path27882"
       style="stroke-width:0.264583" />
    <path
       d="m 52.66368,101.49705 c 0,0 -5.393928,10.04385 -0.186002,9.29986 5.207926,-0.74399 3.440959,-9.57886 3.440959,-9.57886"
       fill="#e6e6e6"
       id="path27884"
       style="stroke-width:0.264583" />
    <polyline
       points="404.933 384.323 411.611 317.891 411.26 277.47 395.794 280.281 395.794 317.539 392.631 385.377"
       fill="#ffb9b9"
       id="polyline27886"
       transform="matrix(0.26458333,0,0,0.26458333,-51.219938,-0.46733116)" />
    <path
       d="m 51.454693,144.9274 7.997878,-3.16196 0.929983,15.80977 c 0,0 1.673993,4.83594 1.115987,6.6959 0,0 0.372004,3.16195 -0.55798,3.34795 -0.930011,0.186 -3.53396,0.55799 -3.719963,0.37201 -0.186002,-0.18599 -0.186002,-0.74399 -0.186002,-0.74399 0,0 -1.859967,1.30198 -2.04597,2.78996 0,0 -7.811875,2.41796 -7.997877,0.186 -0.186002,-2.23196 3.905937,-4.09194 3.905937,-4.09194 l 3.161956,-4.83593 z"
       fill="#2f2e41"
       id="path27888"
       style="stroke-width:0.264583" />
    <path
       d="m 78.424307,120.18977 c 0,0 -4.463945,10.22985 -4.463945,13.2058 0,0 1.766967,8.09088 1.208988,10.32285 l -1.952969,4.18494 -4.09194,-1.67398 -1.115986,-11.15983 0.186002,-17.85574 z"
       fill="#ffb9b9"
       id="path27890"
       style="stroke-width:0.264583" />
    <path
       d="m 68.380432,144.9274 7.997905,-3.16196 0.929984,15.80977 c 0,0 1.673965,4.83593 1.115986,6.6959 0,0 0.372004,3.16195 -0.558007,3.34795 -0.93001,0.186 -3.53396,0.55799 -3.719962,0.372 -0.186002,-0.18598 -0.186002,-0.74399 -0.186002,-0.74399 0,0 -1.859968,1.30198 -2.04597,2.78996 0,0 -7.811876,2.41797 -7.997878,0.18601 -0.186002,-2.23197 3.905938,-4.09194 3.905938,-4.09194 l 3.161956,-4.83593 z"
       fill="#2f2e41"
       id="path27892"
       style="stroke-width:0.264583" />
    <path
       d="m 72.101665,54.719645 a 5.9522518,5.9522518 0 0 1 -11.759698,1.302242 5.7672922,5.7672922 0 0 1 -0.145706,-1.302242 5.9527122,5.9527122 0 0 1 11.905404,0 z"
       fill="#ffb9b9"
       id="path27894"
       style="stroke-width:0.264583" />
    <path
       d="m 66.892469,66.622569 4.618751,-2.398546 2.077138,1.654556 c 0,0 5.021924,-0.186002 6.881919,2.04597 1.859967,2.231972 2.882952,7.904877 2.882952,7.904877 0,0 -6.13791,-1.30198 -5.393928,3.905943 L 76.843315,76.759418 75.82033,79.27038 63.358508,83.548317 57.778605,74.062459 c 0,0 -3.719936,-1.115983 -5.021924,1.487977 0,0 0.279003,-9.392859 3.905938,-9.671844 2.439193,-0.187629 4.277942,-0.186002 4.277942,-0.186002 l 2.04597,-0.372004 1.31019,-0.464992 z"
       fill="#575a89"
       id="path27896"
       style="fill:#ee9849;fill-opacity:1;stroke-width:0.264583" />
    <path
       d="m 74.797319,86.989286 c 0,0 9.764871,29.294554 6.974919,33.386494 0,0 -10.415852,5.20792 -31.247529,-1.85998 l 8.462856,-32.828502 q 7.797589,-1.59467 15.809754,1.301988 z"
       fill="#2f2e41"
       id="path27898"
       style="stroke-width:0.264583" />
    <path
       d="m 74.797319,86.989286 2.748253,-9.444132 C 74.248864,73.959949 77.094246,66.009913 77.094246,66.009913 l -3.977825,-0.852389 c 0,0 -3.99198,10.764914 -8.08392,9.462933 -4.09194,-1.30198 -1.859968,-9.671843 -1.859968,-9.671843 l -3.719962,0.372004 -1.673966,6.509903 1.20896,13.856798 c 5.042059,-0.432496 10.330127,0.07077 15.809754,1.301967 z"
       fill="#575a89"
       id="path27900"
       style="fill:#ee9849;fill-opacity:1;stroke-width:0.264583" />
    <polyline
       points="494.563 384.323 499.484 317.539 500.89 277.47 485.425 280.281 485.425 317.539 482.261 385.377"
       fill="#ffb9b9"
       id="polyline27902"
       transform="matrix(0.26458333,0,0,0.26458333,-51.219938,-0.46733116)" />
    <path
       d="m 76.378337,101.49705 c 0,0 -5.393928,10.04385 -0.186003,9.29986 5.2079,-0.74399 3.440933,-9.57886 3.440933,-9.57886"
       fill="#ffffff"
       id="path27904"
       style="stroke-width:0.264583" />
    <path
       d="m 83.353229,75.829426 c 0,0 -0.661167,-9.552019 -6.189503,-9.518938 v 11.04646 c 0,0 4.143533,-2.457503 6.189503,-1.527522 z"
       fill="#575a89"
       id="path27906"
       style="fill:#ee9849;fill-opacity:1;stroke-width:0.264583" />
    <path
       d="m 68.052243,56.255615 a 0.15178352,0.15178352 0 0 1 -0.09485,-0.270351 l 3.035538,-2.428434 a 0.15184966,0.15184966 0 1 1 0.189706,0.237152 l -3.035538,2.428433 a 0.15195814,0.15195814 0 0 1 -0.09485,0.0332 z"
       fill="#ffffff"
       id="path27908"
       style="stroke-width:0.264583" />
    <path
       d="m 68.281954,59.898266 c -0.06678,0.08195 -0.133535,0.163912 -0.203358,0.2398 a 5.9525958,5.9525958 0 0 1 -8.265795,-4.116192 l 2.876338,-0.529167 5.592815,0.529167 c -1.28098,1.560272 -1.126172,2.100577 0,3.876392 z"
       fill="#ffffff"
       id="path27910"
       style="stroke-width:0.264583" />
    <path
       d="m 62.787961,46.388027 c 0,0 -3.076284,0.578644 -3.787696,4.415335 a 7.043412,7.043412 0 0 0 -0.06025,1.959052 c 0.07104,0.738521 -0.03201,2.298361 -1.635575,4.135056 a 40.208112,40.208112 0 0 0 -2.919783,3.749786 v 0 l 3.214423,0.855726 1.436211,-5.325747 a 27.244145,27.244145 0 0 1 3.183546,-7.317052 l 0.02953,-0.04738 c 0,0 1.06762,2.852658 3.929141,3.243728 l -0.882306,-1.161637 c 0,0 3.345128,1.933739 5.240338,2.524459 a 1.2452085,1.2452085 0 0 1 0.401823,2.165297 q -0.02011,0.01585 -0.04109,0.03175 c -1.393957,1.058764 -4.237752,3.58508 -3.114278,6.028951 1.1235,2.443872 -0.186664,2.889454 -0.186664,2.889454 l 2.415937,-0.919096 1.105773,-0.473514 -0.111733,0.817575 5.398055,0.113091 c 0,0 1.458675,-0.0089 -1.132364,-3.902564 0,0 -0.625184,-1.459987 -0.111945,-2.575367 a 5.9248145,5.9248145 0 0 0 0.598329,-2.714829 C 75.594217,50.954521 73.940545,42.968288 62.787961,46.388027 Z"
       fill="#2f2e41"
       id="path27912"
       style="stroke-width:0.264583" />
    <path
       d="m -0.15636038,158.2067 c 0,0 0,25.25763 5.79683558,31.88259 0,0 1.2421923,3.31247 1.6562387,4.55465 a 17.409252,17.409252 0 0 0 0.8281194,2.0703 v 1.65624 c 0,0 11.1796247,-1.24218 12.4217907,-4.1406 l -2.070285,-2.48436 c 0,0 -0.414073,-0.41406 0,-1.65623 0.414046,-1.24218 -0.82812,-1.24218 -0.82812,-1.24218 l -2.898431,-6.62495 0.414073,-27.32793 -2.070312,-37.67942 -17.8045527,-0.82811 z"
       fill="#2f2e41"
       id="path27914"
       style="fill:#2b478b;fill-opacity:1;stroke-width:0.264583" />
    <path
       d="m 8.9529526,195.88612 c 0,0 -2.8984045,8.69525 0,9.10931 2.8984314,0.41406 28.1560584,0.82812 27.7419854,-2.48436 -0.414046,-3.31248 -8.69524,-2.89841 -8.69524,-2.89841 l -8.69524,-5.38278 z"
       fill="#2f2e41"
       id="path27916"
       style="stroke-width:0.264583" />
    <path
       d="m -16.718721,117.21481 c 0,0 -0.82812,5.38278 2.484358,11.17961 3.312477,5.79683 1.242166,25.25763 1.242166,25.25763 l -29.398225,25.67169 c 0,0 5.796836,9.93743 7.867121,9.52337 2.070285,-0.41406 34.78101353,-26.91387 34.78101353,-26.91387 L 13.093549,118.87105 Z"
       fill="#2f2e41"
       id="path27918"
       style="fill:#2b478b;fill-opacity:1;stroke-width:0.264583" />
    <path
       d="m -41.986429,178.22661 c 0,0 -8.895927,2.20689 -7.694004,4.87665 1.201923,2.66976 14.373807,24.22483 16.949975,22.10177 2.576142,-2.12305 -2.206889,-8.89594 -2.206889,-8.89594 l -0.108532,-10.22594 z"
       fill="#2f2e41"
       id="path27920"
       style="stroke-width:0.264583" />
    <path
       d="m -10.09374,40.200447 a 9.4698687,9.4698687 0 0 0 2.1228845,5.98933 9.4995655,9.4995655 0 0 0 9.2429805,3.352433 9.2401548,9.2401548 0 0 0 2.4471048,-0.842066 9.5173852,9.5173852 0 0 0 4.9575243,-6.222563 9.3802728,9.3802728 0 0 0 0.2767012,-2.277134 9.5236002,9.5236002 0 1 0 -19.0471953,0 z"
       fill="#a0616a"
       id="path27922"
       style="stroke-width:0.264583" />
    <path
       d="m -8.0635655,43.559925 0.4212167,12.254796 8.01319717,3.166126 c 0,0 0.78583893,-12.548108 1.89513103,-13.243769 1.1092921,-0.695661 -10.3295449,-2.177153 -10.3295449,-2.177153 z"
       fill="#a0616a"
       id="path27924"
       style="stroke-width:0.264583" />
    <path
       d="m 2.3279977,60.488662 c 0,0 -11.1795982,-11.179606 -14.0780027,-10.765546 -2.898431,0.41406 -2.898431,1.656239 -2.898431,2.484358 0,0.828119 0.828119,1.242179 0,1.656239 -0.828119,0.414059 -1.656239,0 -1.656239,1.242176 0,1.242176 -7.453074,13.663964 -4.968716,27.327929 2.484358,13.663964 5.382789,20.288912 4.140597,27.741982 -1.242166,7.45307 -0.414047,9.10931 -0.414047,9.10931 0,0 31.054463,2.48436 31.46851,-0.41406 0.414046,-2.89842 -1.242166,-1.24218 0.828119,-3.31248 2.070312,-2.0703 1.242192,-2.0703 1.242192,-3.31247 0,-1.24218 -9.1093125,-51.757438 -13.6639823,-51.757438 z"
       fill="#575a89"
       id="path27926"
       style="fill:#739af0;fill-opacity:1;stroke-width:0.264583" />
    <path
       d="m -3.4688378,116.80076 c 0,0 4.9687162,12.00772 8.6952665,9.1093 C 8.9529526,123.01165 3.57019,113.07422 3.57019,113.07422 Z"
       fill="#ffffff"
       id="path27928"
       style="stroke-width:0.264583" />
    <path
       d="m -15.476555,61.316782 c 0,0 -9.728333,1.113761 -6.106346,18.982531 3.621988,17.86877 17.7000167,38.571737 17.7000167,38.571737 l 9.5233595,-4.55466 -12.421764,-24.429506 2.8984045,-15.320198 c 0,0 1.6562387,-14.492081 -11.5936707,-13.249904 z"
       fill="#575a89"
       id="path27930"
       style="fill:#739af0;fill-opacity:1;stroke-width:0.264583" />
    <polygon
       points="118.874,428.351 123.569,433.046 170.518,342.279 "
       opacity="0.2"
       id="polygon27932"
       transform="matrix(-0.26458333,0,0,0.26458333,38.127789,-0.46733116)"
       style="fill:#4a75cb;fill-opacity:1" />
    <polygon
       points="156.433,450.26 170.518,450.26 197.853,382.389 "
       opacity="0.2"
       id="polygon27934"
       transform="matrix(-0.26458333,0,0,0.26458333,38.127789,-0.46733116)"
       style="fill:#4a75cb;fill-opacity:1" />
    <rect
       x="-57.949368"
       y="120.83227"
       width="0.58916885"
       height="30.575659"
       transform="matrix(-0.93434848,-0.35636066,-0.35636066,0.93434848,0,0)"
       opacity="0.2"
       id="rect27936"
       style="stroke-width:0.264583" />
    <circle
       cx="-2.2695658"
       cy="62.173058"
       r="0.5890286"
       fill="#d0cde1"
       id="circle27938"
       transform="scale(-1,1)"
       style="stroke-width:0.264583" />
    <line
       x1="2.2695658"
       y1="62.173058"
       x2="7.276237"
       y2="78.371361"
       fill="none"
       id="line27940"
       style="stroke-width:0.264583" />
    <path
       d="M 7.2760499,78.665862 A 0.29436218,0.29436218 0 0 1 6.9947714,78.458207 L 1.9880346,62.260053 a 0.29443362,0.29443362 0 1 1 0.5625571,-0.174006 l 5.0067368,16.198448 a 0.29474583,0.29474583 0 0 1 -0.2812786,0.381373 z"
       fill="#d0cde1"
       id="path27942"
       style="stroke-width:0.264583" />
    <path
       d="m 1.3393027,47.49438 2.3799271,2.264097 c 2.4510735,-1.233442 4.8185387,-4.557035 5.486691,-7.280896 L 6.0833348,41.169023 C 5.8794733,43.947201 3.9074544,45.794191 1.3393027,47.49438 Z"
       fill="#ffffff"
       id="path27944"
       style="stroke-width:0.264583" />
    <path
       d="m 0.74592169,42.355028 a 0.19746383,0.19746383 0 0 0 0.0281781,-0.0019 l 5.53468641,-0.79067 a 0.19770003,0.19770003 0 1 0 -0.055589,-0.391472 l -5.53468637,0.790667 a 0.19768079,0.19768079 0 0 0 0.0274108,0.393407 z"
       fill="#ffffff"
       id="path27946"
       style="stroke-width:0.264583" />
    <path
       d="m 1.5369729,47.49438 a 0.197485,0.197485 0 0 0 0.1721909,-0.294572 l -1.83382709,-3.264601 a 0.1975856,0.1975856 0 1 0 -0.34438167,0.193808 l 1.83382706,3.264601 a 0.19721248,0.19721248 0 0 0 0.1721908,0.100764 z"
       fill="#ffffff"
       id="path27948"
       style="stroke-width:0.264583" />
    <path
       d="m -4.8808132,45.922297 c 0.7709693,-0.407636 1.6665574,-0.491678 2.5010533,-0.745051 2.98555826,-0.906489 4.9855966,-4.281516 4.3470512,-7.335634 a 3.7430048,3.7430048 0 0 1 -0.1567921,-1.209 C 1.9221004,35.728073 2.8476658,35.144431 3.7351842,34.937181 4.6227025,34.72993 5.5670268,34.760032 6.4153075,34.426762 7.7250743,33.91219 8.5950772,32.566183 8.7836987,31.17166 8.9722937,29.777136 8.5585118,28.354871 7.8854912,27.119037 L 7.5648956,28.041539 A 3.4218297,3.4218297 0 0 1 6.5174102,26.474893 2.1580342,2.1580342 0 0 0 4.8731571,27.797148 C 4.3585689,28.100586 4.2844327,26.854459 3.7160548,26.670626 3.4780356,26.593649 3.233296,26.739881 3.0065746,26.845617 1.8612463,27.37981 0.53055086,26.923073 -0.69806829,26.626968 a 13.945923,13.945923 0 0 0 -6.47390431,-0.0076 c -1.4142243,0.337319 -2.8140554,0.924718 -3.8260334,1.968608 -0.831083,0.857295 -1.348899,1.965883 -1.789801,3.075501 -1.0854,2.73159 -1.802421,5.687258 -1.444122,8.604665 a 12.179728,12.179728 0 0 0 2.870332,6.45324 c 0.819521,0.944206 3.4932676,4.238292 4.9593238,3.67669 1.8421085,-0.705675 -0.6490229,-3.328151 1.52146,-4.475752 z"
       fill="#2f2e41"
       id="path27950"
       style="stroke-width:0.264583" />
  </g>
</svg>
