<?xml version="1.0" encoding="UTF-8" standalone="no"?>
<!-- Created with Inkscape (http://www.inkscape.org/) -->

<svg
   width="487.82236mm"
   height="271.06467mm"
   viewBox="0 0 487.82236 271.06467"
   version="1.1"
   id="svg128819"
   inkscape:version="1.1.1 (3bf5ae0d25, 2021-09-20, custom)"
   sodipodi:docname="dating.svg"
   xmlns:inkscape="http://www.inkscape.org/namespaces/inkscape"
   xmlns:sodipodi="http://sodipodi.sourceforge.net/DTD/sodipodi-0.dtd"
   xmlns="http://www.w3.org/2000/svg"
   xmlns:svg="http://www.w3.org/2000/svg">
  <sodipodi:namedview
     id="namedview128821"
     pagecolor="#ffffff"
     bordercolor="#999999"
     borderopacity="1"
     inkscape:pageshadow="0"
     inkscape:pageopacity="0"
     inkscape:pagecheckerboard="0"
     inkscape:document-units="mm"
     showgrid="false"
     inkscape:zoom="0.16821792"
     inkscape:cx="246.70381"
     inkscape:cy="-279.39949"
     inkscape:window-width="942"
     inkscape:window-height="1034"
     inkscape:window-x="8"
     inkscape:window-y="32"
     inkscape:window-maximized="0"
     inkscape:current-layer="layer1" />
  <defs
     id="defs128816">
    <rect
       x="9760.998"
       y="1909.0098"
       width="1167.7894"
       height="285.12857"
       id="rect120278" />
  </defs>
  <g
     inkscape:label="Layer 1"
     inkscape:groupmode="layer"
     id="layer1"
     transform="translate(168.69869,36.161427)">
    <path
       class="cls-2"
       d="m -138.78368,233.93468 c 0,0 -59.93445,-64.34904 -10.13526,-134.018704 C -104.73463,38.100262 -53.219599,42.326345 -15.423447,67.407707 0.67295619,78.091212 47.092514,68.723427 86.587132,5.8247545 140.44677,-79.950896 327.19048,-27.928056 293.14337,104.04205 c -16.47719,63.86237 50.14357,66.18605 16.19832,130.03305 z"
       id="path3045"
       style="opacity:0.6;fill:#fcecdb;stroke:none;stroke-width:0.192357;stroke-miterlimit:10" />
    <path
       class="cls-3"
       d="m 220.32713,233.58943 h -26.11967 c -1.39965,-1.18798 0.97102,-3.88409 3.43958,-4.06665 1.07421,-0.0794 2.43417,0.14552 3.98727,0.47361 0.35719,-4.7625 2.41036,-26.23609 10.14677,-25.37355 8.6995,0.96573 0,9.45092 -2.45797,14.47536 -1.82298,3.72004 -3.74386,9.05669 -4.62228,11.57552 0.70644,0.15346 1.43669,0.30162 2.18546,0.43921 1.15094,-3.53748 5.44248,-15.44638 10.89554,-14.75052 6.40557,0.80962 3.83117,5.58535 -0.70908,8.41904 -3.32846,2.08227 -7.40833,5.0456 -9.3636,6.477 a 27.984979,27.984979 0 0 0 5.1091,0.4101 c 4.4794,-0.10848 6.66486,1.21179 7.50888,1.92088 z"
       id="path3047"
       style="fill:#82b378;stroke:none;stroke-width:0.264583;stroke-miterlimit:10" />
    <path
       class="cls-3"
       d="m -36.158446,233.67206 c -1.037166,-1.62984 -4.15925,-5.85788 -8.3185,-5.29167 -4.529666,0.61119 5.005917,3.59833 7.924271,5.31283 a 4.8656874,4.8656874 0 0 1 -1.613958,-0.18785 c -1.952625,-0.69585 -5.291667,0.63765 -6.35,1.10596 h 18.579041 a 2.9395208,2.9395208 0 0 0 -1.322916,-1.69863 c -0.306917,-0.18785 -0.918104,-0.21431 -1.711854,-0.15346 1.105958,-1.30175 1.87325,-5.461 -1.203855,-4.39208 -2.246312,0.79375 -2.238375,3.32317 -2.01877,4.82865 -0.478896,0.0741 -0.963084,0.15081 -1.44198,0.2196 -0.923395,-4.71487 -4.196291,-18.52083 -10.826749,-18.89919 -6.723063,-0.37306 5.70177,14.32719 9.837208,19.03148 -0.547688,0.0556 -1.058333,0.10319 -1.531938,0.12436 z"
       id="path3049"
       style="fill:#82b378;stroke:none;stroke-width:0.264583;stroke-miterlimit:10" />
    <path
       class="cls-9"
       d="m 14.363027,-17.73946 c -0.658813,-0.717021 -2.132542,-1.531938 -4.071938,-2.193396 3.407834,-1.534583 6.307667,-3.341687 4.302125,-4.445 -0.867833,-0.478896 -1.902354,-0.410104 -2.995083,0 1.680104,-1.698625 2.487083,-3.175 0.851958,-3.545417 -2.4870829,-0.579437 -5.0773537,2.624667 -6.8791662,5.580063 1.1721041,-2.534708 1.778,-5.045604 -0.4074583,-5.085292 -2.5214792,-0.04233 -3.0136042,3.302 -2.968625,6.19125 -0.2090208,0 -0.4180417,0 -0.6270625,0 -0.70908331,-3.198812 -2.08756246,-7.172854 -4.4344166,-6.111875 -1.1800152,0.529167 -1.1403542,1.680104 -0.5291667,3.008313 -1.1085777,-0.851959 -2.2065985,-1.148292 -3.0797235,-0.246063 -1.3229166,1.375834 0.3042709,3.008313 2.4658902,4.370917 a 13.329708,13.329708 0 0 0 -4.2544735,2.4765 c -7.3343029,6.405562 0.6641042,20.9020829 0.6641042,20.9020829 L 13.341735,2.6334563 c 6.564313,-10.4457499 3.39725,-17.7905833 1.021292,-20.3729163 z"
       id="path3121"
       style="fill:#2c3a64;stroke:none;stroke-width:0.0396875px;stroke-miterlimit:10" />
    <path
       class="cls-10"
       d="m -6.9941131,82.103724 -12.5069069,1.5875 c -8.22325,1.034521 -15.658041,-3.704167 -16.517937,-10.535735 l -4.757209,-37.753395 c -0.862541,-6.831534 2.738411,-12.215805 11.00664,-12.554471 4.90011,-0.201084 13.075709,-1.280584 21.8705379,-4.206875 7.79989013,-2.595563 8.67301512,4.585229 9.5249734,11.41677 l 4.7625,37.742804 C 7.2483811,74.629218 1.2291104,81.066557 -6.9941131,82.103724 Z"
       id="path3123"
       style="fill:#2b478b;stroke:none;stroke-width:0.0396875px;stroke-miterlimit:10" />
    <path
       class="cls-7"
       d="m -23.533296,234.89795 c 0,0 0,-4.02167 0.574145,-5.36046 0.574146,-1.33879 2.674938,-6.78391 2.674938,-6.78391 h 8.202083 c 0,0 1.526725,4.96887 1.624621,6.59341 0.0979,1.62454 0,5.55625 0,5.55625 z"
       id="path3125"
       style="fill:#233862;stroke:none;stroke-width:0.264583;stroke-miterlimit:10" />
    <path
       class="cls-7"
       d="m 28.632006,234.89795 c 0,0 0,-4.02167 -0.5715,-5.36046 -0.5715,-1.33879 -2.677583,-6.78391 -2.677583,-6.78391 h -8.202084 c 0,0 -1.529291,4.96887 -1.624541,6.59341 -0.09525,1.62454 0,5.55625 0,5.55625 z"
       id="path3127"
       style="fill:#233862;stroke:none;stroke-width:0.264583;stroke-miterlimit:10" />
    <path
       class="cls-15"
       d="m -4.282134,9.1395603 c 0,0 -0.2910416,8.9561457 -1.4366874,12.9645837 l -9.0726156,6.334124 34.152443,5.11175 -8.143875,-11.255374 c 0,0 -2.4606249,-12.009438 -1.169458,-16.451792 1.291166,-4.4423541 -14.329807,3.2967083 -14.329807,3.2967083 z"
       id="path3129"
       style="fill:#b56f40;stroke:none;stroke-width:0.264583" />
    <path
       class="cls-16"
       d="m -4.3324048,10.375164 c 0,0 2.7013694,6.503459 7.786661,6.35 5.0852916,-0.153458 6.2468124,-5.897562 6.2468124,-5.897562 z"
       id="path3131"
       style="fill:#99592e;stroke:none;stroke-width:0.264583" />
    <path
       class="cls-15"
       d="M 2.8721728,14.235435 C -0.81347296,14.169289 -7.5973631,9.2612687 -7.5973631,3.1837896 V -6.314752 c 0,-2.2198541 1.5478125,-4.034896 3.4395833,-4.034896 H 9.8942144 c 1.8917706,0 3.4395836,1.8150419 3.4395836,4.034896 v 8.9482083 c 0,6.3738124 -6.2335836,11.6628327 -10.4616252,11.6019787 z"
       id="path3133"
       style="fill:#b56f40;stroke:none;stroke-width:0.264583" />
    <path
       class="cls-12"
       d="m -22.504041,95.602765 c 0,0 1.436688,43.897025 -0.711729,68.942475 -2.148417,25.04546 0.01587,59.90167 0.01587,59.90167 0,0 6.879167,3.78883 14.3246209,0 0,0 8.17292614,-48.387 8.12265531,-59.90167 C -0.80818129,152.28181 8.1426728,97.515703 8.1426728,97.515703 Z"
       id="path3135"
       style="fill:#ee9849;stroke:none;stroke-width:0.264583;stroke-miterlimit:10" />
    <path
       class="cls-12"
       d="m 28.335673,224.44426 c 0,0 -6.879167,3.79148 -14.324542,0 0,0 -8.1703332,-48.38435 -8.1200624,-59.90166 C 5.9148811,159.3647 4.3326728,146.6012 2.4938187,133.58635 -0.01707713,115.78518 -3.0042229,97.515703 -3.0042229,97.515703 L 28.827798,95.526036 c 0,0 -2.624667,43.971104 -0.47625,69.013914 2.148416,25.04281 -0.01588,59.90431 -0.01588,59.90431 z"
       id="path3137"
       style="fill:#ee9849;stroke:none;stroke-width:0.264583;stroke-miterlimit:10" />
    <path
       class="cls-17"
       d="m 22.827048,24.419248 v 0.01852 A 90.431936,90.431936 0 0 0 11.217131,22.294644 c -3.1749999,4.20952 -5.4451249,5.188479 -8.3449582,6.334124 -4.6619582,-0.635 -8.5883484,-6.389687 -8.5883484,-6.519333 -6.7707664,0.693208 -10.6019334,2.116667 -10.6019334,2.116667 -2.577042,1.0795 -5.958417,21.208992 -6.484937,32.390283 -0.06615,1.404938 -0.08996,2.664354 -0.05818,3.730625 0.264583,9.591146 0.661458,18.909797 -0.574146,29.233839 -1.624542,13.565191 1.127125,13.324421 1.127125,13.324421 0,0 3.704166,0.72495 8.868833,1.41022 4.6699488,0.62442 10.5383806,1.21973 15.9358805,1.21973 12.3824995,0 25.9529785,-2.62995 25.9529785,-2.62995 3.907896,0.0503 -1.095375,-24.307275 -1.825625,-38.959927 -0.169333,-3.405187 -0.325437,-6.511395 -0.473604,-9.350375 4.691063,4.042834 18.497021,11.408834 18.811875,12.348105 0,0 -3.013604,5.500687 -3.929062,8.432297 -3.513667,11.255375 -9.559396,18.695458 -9.559396,18.695458 0.822854,3.122083 0.592666,4.497916 0.592666,4.497916 9.562042,-7.51152 15.726834,-13.901208 19.661188,-18.803937 5.532437,-6.892422 6.6675,-10.847943 6.6675,-10.847943 C 37.103964,25.591352 22.827048,24.419248 22.827048,24.419248 Z"
       id="path3139"
       style="fill:#74acbe;stroke:none;stroke-width:0.264583;stroke-miterlimit:10" />
    <path
       class="cls-18"
       d="m -13.442062,104.31549 c -5.164666,-0.68527 -8.868833,-1.41022 -8.868833,-1.41022 0,0 -2.751667,0.24077 -1.127151,-13.324421 1.235604,-10.31875 0.849339,-19.642693 0.574145,-29.233839 -0.03172,-1.058333 0,-2.325687 0.05823,-3.730625 0.79375,1.267354 9.607021,15.504583 11.980386,26.085297 1.7277294,7.733771 -0.878416,16.811625 -2.616782,21.613808 z"
       id="path3141"
       style="opacity:0.64;fill:#578e9b;stroke:none;stroke-width:0.264583;stroke-miterlimit:10" />
    <path
       class="cls-19"
       d="M 5.8910686,164.5426 C 5.9148811,159.3647 4.3326728,146.6012 2.4938187,133.58635 4.4014645,125.81554 9.0449019,118.33312 9.0449019,118.33312 14.921298,134.81666 5.8910686,164.5426 5.8910686,164.5426 Z"
       id="path3143"
       style="opacity:0.64;fill:#e58638;stroke:none;stroke-width:0.264583;stroke-miterlimit:10" />
    <path
       class="cls-15"
       d="m 31.470985,94.070828 c 0,0 -5.159375,-4.7625 -7.260167,-2.100792 -2.100791,2.661708 -2.484437,6.879167 -0.859895,6.590771 1.624541,-0.288396 4.968875,-1.815042 5.445125,-1.058333 0.476249,0.756708 2.619374,2.225145 3.267604,1.058333 0.648229,-1.166813 -0.592667,-4.489979 -0.592667,-4.489979 z"
       id="path3145"
       style="fill:#b56f40;stroke:none;stroke-width:0.264583" />
    <path
       class="cls-15"
       d="m 31.470985,94.070828 c 0.822854,3.122083 0.592667,4.497916 0.592667,4.497916 9.562041,-7.51152 15.726833,-13.901208 19.661187,-18.803937 -2.965979,-0.219604 -5.709708,-0.881062 -10.694458,-4.394729 -4.114271,12.557125 -9.559396,18.70075 -9.559396,18.70075 z"
       id="path3147"
       style="fill:#b56f40;stroke:none;stroke-width:0.264583" />
    <path
       class="cls-18"
       d="M 43.760881,65.974698 C 42.996235,65.337052 30.735443,58.584885 26.092006,54.552635 c 0,0 4.632854,-3.473979 7.500937,1.5875 2.868084,5.061479 10.167938,9.834563 10.167938,9.834563 z"
       id="path3149"
       style="opacity:0.64;fill:#578e9b;stroke:none;stroke-width:0.264583;stroke-miterlimit:10" />
    <path
       class="cls-18"
       d="m 58.392339,68.924802 c 0,0 -1.135063,3.952875 -6.6675,10.847943 -6.402917,-0.08996 6.6675,-10.847943 6.6675,-10.847943 z"
       id="path3151"
       style="opacity:0.64;fill:#578e9b;stroke:none;stroke-width:0.264583;stroke-miterlimit:10" />
    <path
       class="cls-9"
       d="m -7.5973631,-2.4677104 c 0,0 2.555875,-7.8104996 10.9404943,-6.5934165 8.3846458,1.2170833 9.1096038,3.0109583 10.0012498,5.0879374 0.891646,2.0769791 2.608792,-7.5935415 2.608792,-7.5935415 l -9.8874794,-2.939521 c 0,0 -11.9644317,1.362604 -12.8243275,3.368146 l -0.8598958,2.0055416 z"
       id="path3153"
       style="fill:#2c3a64;stroke:none;stroke-width:0.0396875px;stroke-miterlimit:10" />
    <path
       class="cls-10"
       d="m -22.726291,80.738474 0.142849,-6.656943 c 9.487984,-7.201958 13.3483081,-15.740063 13.7134331,-30.506458 0.2645833,-11.197159 -3.4846151,-20.32793 -3.5110741,-20.420534 0,0 1.677512,-0.402166 2.249012,-0.500062 0.6164788,-0.105833 2.5029579,-0.322792 2.5029579,-0.322792 0.1164167,0.391583 2.6167292,9.49325 2.3415625,21.230159 -0.365125,15.73477 -7.1649694,29.376687 -17.4387404,37.17663 z"
       id="path3155"
       style="fill:#2b478b;stroke:none;stroke-width:0.0396875px;stroke-miterlimit:10" />
    <path
       class="cls-17"
       d="m 3.5759645,78.812307 c -3.20674997,0.481542 -19.6109695,4.294188 -31.3240465,5.770563 -6.598709,0.830791 -11.694584,0.926041 -12.088813,-0.735542 -1.087464,-4.611688 2.614057,-33.975172 8.501036,-45.791463 5.886979,-11.816284 16.793131,-14.374805 16.793131,-14.374805 l 3.103615,18.713971 -15.774538,31.416625 3.839105,0.06879 26.3604897,0.468313 z"
       id="path3157"
       style="fill:#74acbe;stroke:none;stroke-width:0.264583;stroke-miterlimit:10" />
    <rect
       class="cls-7"
       x="4.6024981"
       y="67.13623"
       width="8.5460415"
       height="13.348229"
       rx="1.3070416"
       id="rect3159"
       style="fill:#233862;stroke:none;stroke-width:0.264583;stroke-miterlimit:10" />
    <rect
       class="cls-10"
       x="4.6024981"
       y="68.213104"
       width="8.5460415"
       height="13.348229"
       rx="1.3070416"
       id="rect3161"
       style="fill:#2b478b;stroke:none;stroke-width:0.0396875px;stroke-miterlimit:10" />
    <path
       class="cls-15"
       d="m -0.09645213,75.380661 c 0,0 8.67304153,-5.976964 11.51731213,-3.899984 2.844271,2.076979 3.069167,7.019422 -8.7312497,7.429526 z"
       id="path3163"
       style="fill:#b56f40;stroke:none;stroke-width:0.264583" />
    <path
       class="cls-15"
       d="m 3.5759645,78.812307 c -3.20674997,0.481542 -19.6109695,4.294188 -31.3240465,5.770563 1.023911,-4.992688 2.645833,-8.389938 4.373536,-10.702423 L 2.9859437,74.34876 Z"
       id="path3165"
       style="fill:#b56f40;stroke:none;stroke-width:0.264583" />
    <path
       class="cls-9"
       d="M 12.061152,-1.615752 A 2.5638125,2.5638125 0 0 0 10.052964,-2.4677104 H 5.8196311 c -0.79375,0 -1.3626041,0.2301875 -1.666875,0.6852709 a 1.5504583,1.5504583 0 0 0 -0.238125,0.7011458 3.9343541,3.9343541 0 0 0 -1.8758958,0.03175 1.5531041,1.5531041 0 0 0 -0.2407708,-0.7328958 C 1.4963395,-2.2375229 0.93277702,-2.4677104 0.13108953,-2.4677104 H -4.0784048 a 2.5664583,2.5664583 0 0 0 -2.0108333,0.8519584 2.1669375,2.1669375 0 0 0 -0.3942292,1.85208328 c 0.4815417,2.38125002 3.2278902,2.69081242 4.6010777,2.69081242 0.4233333,0 0.7170208,-0.029104 0.7725833,-0.034396 1.28322916,0 2.1881042,-0.7355416 2.8442708,-2.30452079 a 4.1142708,4.1142708 0 0 0 0.3201458,-1.29645832 3.6327291,3.6327291 0 0 1 1.8520833,-0.0396875 4.1698333,4.1698333 0 0 0 0.3227917,1.33614582 C 4.885652,2.1572063 5.790527,2.8901021 7.0764019,2.8927479 c 0.052917,0 0.3466042,0.034396 0.7699375,0.034396 1.3731875,0 4.1195626,-0.3042708 4.6011046,-2.69081242 A 2.1669375,2.1669375 0 0 0 12.061152,-1.615752 Z M 1.4778187,0.48503961 C 0.86663119,1.9428938 0.0411312,2.6202271 -1.1203896,2.6202271 h -0.018521 A 8.4111041,8.4111041 0 0 1 -3.480473,2.5091021 c -1.5663069,-0.3175 -2.4870569,-1.1006667 -2.7331194,-2.32304165 a 1.905,1.905 0 0 1 0.3360209,-1.62718745 2.2807083,2.2807083 0 0 1 1.7965208,-0.7514167 h 4.22007763 c 0.70379166,0 1.18797917,0.1878542 1.43668747,0.5609167 a 1.3440833,1.3440833 0 0 1 0.1984375,0.65881246 2.5982083,2.5982083 0 0 0 -0.3704167,0.13758334 0.16404166,0.16404166 0 0 0 0.068792,0.31485416 0.1666875,0.1666875 0 0 0 0.068792,0 2.2621875,2.2621875 0 0 1 0.2248958,-0.0873125 4.0692916,4.0692916 0 0 1 -0.28575,1.08479165 z M 12.180214,0.18870628 C 11.934152,1.4110813 11.013402,2.1942479 9.4470686,2.5117479 a 8.4111041,8.4111041 0 0 1 -2.3415625,0.111125 h -0.015875 c -1.1641666,0 -1.9896666,-0.6773333 -2.5982083,-2.13518745 A 4.0560624,4.0560624 0 0 1 4.1977353,-0.64473121 c 0.082021,0.0343958 0.1613958,0.0687917 0.2407708,0.111125 A 0.1666875,0.1666875 0 1 0 4.5946103,-0.8272937 2.7384375,2.7384375 0 0 0 4.1950895,-0.99662704 1.2991042,1.2991042 0 0 1 4.393527,-1.6263354 C 4.6422353,-1.9993979 5.123777,-2.187252 5.8275686,-2.187252 h 4.2333334 a 2.2780625,2.2780625 0 0 1 1.793875,0.7514166 1.889125,1.889125 0 0 1 0.328083,1.62454168 z"
       id="path3167"
       style="fill:#2c3a64;stroke:none;stroke-width:0.0396875px;stroke-miterlimit:10" />
    <path
       class="cls-20"
       d="m -0.50126463,8.0918103 c 0,0 4.63814573,-0.5053541 6.79714573,0 0,0 -1.1482916,1.8811875 -3.0321249,1.8811875 -1.8838334,0 -3.30464583,-0.6879166 -3.76502083,-1.8811875 z"
       id="path3169"
       style="fill:#fff0e6;stroke:none;stroke-width:0.264583;stroke-miterlimit:10" />
    <path
       class="cls-21"
       d="m 170.9572,-6.3756061 c 2.26219,-0.7434792 4.71752,-0.381 6.40027,0.0635 -0.34925,-0.5291667 -1.17475,-0.8784167 -1.17475,-0.8784167 1.08479,0.055562 3.22792,1.5875 3.22792,1.5875 15.80885,-2.6961041 13.75833,19.3674998 12.43541,24.3231458 -1.32291,4.955645 6.31825,19.314575 11.58875,26.333971 14.78227,19.666479 -8.8556,40.145255 -8.8556,40.145255 -19.16377,16.097251 -10.45633,-15.113027 -10.45633,-15.113027 1.18798,-3.968749 -13.208,-29.154437 -21.67996,-37.531137 -1.66952,-3.96875 -1.27,-10.31875 -1.23561,-10.82675 -0.57679,4.982104 -0.29104,7.900458 0.14552,9.599083 -6.72835,-9.284229 3.61157,-35.7319783 9.60438,-37.7031241 z"
       id="path3171"
       style="fill:#163560;stroke:none;stroke-width:0.264583;stroke-miterlimit:10" />
    <path
       class="cls-5"
       d="m 131.6163,66.136093 c 0,2.129896 1.05834,4.860396 2.6035,7.672917 3.81265,7.011485 10.4775,14.525651 10.4775,14.525651 l 3.86028,-5.500687 c 0,0 -2.34686,-5.820833 -3.90525,-10.630985 -0.93663,-2.88925 -1.5875,-5.405437 -1.26736,-6.066896 0.84402,-1.767416 17.56833,-21.552958 17.56833,-21.552958 l 4.54555,-15.308783 c 0,0 -11.12573,0.587375 -15.875,7.524742 -4.74927,6.937375 -18.00755,23.590249 -18.00755,29.336999 z"
       id="path3173"
       style="fill:#bc3f3f;stroke:none;stroke-width:0.264583;stroke-miterlimit:10" />
    <path
       class="cls-4"
       d="m 134.2198,73.80901 c 3.81265,7.011485 10.4775,14.525651 10.4775,14.525651 l 3.86028,-5.500687 c 0,0 -2.34686,-5.820833 -3.90525,-10.630985 -1.87325,1.108604 -5.11705,2.164292 -10.43253,1.606021 z"
       id="path3175"
       style="fill:#ffb27d;stroke:none;stroke-width:0.264583;stroke-miterlimit:10" />
    <polygon
       class="cls-4"
       points="1257.88,1461.64 1273.01,1525.36 1295.67,1525.23 1296.5,1461.64 "
       id="polygon3177"
       transform="matrix(-0.26458333,0,0,0.26458333,513.26479,-182.61456)"
       style="fill:#ffb27d;stroke:none;stroke-miterlimit:10" />
    <polygon
       class="cls-4"
       points="1448.49,1464.36 1491.54,1525.36 1508.31,1503.82 1482.4,1455.97 "
       id="polygon3179"
       transform="matrix(-0.26458333,0,0,0.26458333,513.26479,-182.61456)"
       style="fill:#ffb27d;stroke:none;stroke-miterlimit:10" />
    <path
       class="cls-4"
       d="m 164.70245,34.21676 c -0.05,0.02381 4.80748,2.545292 8.46667,1.545167 3.43958,-0.936625 5.68351,-5.3922 5.63562,-5.402784 -1.45521,-0.288395 -1.87325,-2.291291 -1.85208,-10.884958 l -0.65855,0.129646 -11.06249,2.19075 c 0,0 0.25135,3.481917 0.26458,6.76275 0.003,2.754312 -0.16933,5.36575 -0.79375,5.659429 z"
       id="path3181"
       style="fill:#ffb27d;stroke:none;stroke-width:0.264583;stroke-miterlimit:10" />
    <path
       class="cls-22"
       d="m 182.4507,-0.37750204 c 0,0 -4.20158,-6.77597906 -12.00944,-2.72520826 0,0 4.04548,0.111125 12.00944,2.72520826 z"
       id="path3183"
       style="fill:#5fabb7;stroke:none;stroke-width:0.264583" />
    <path
       class="cls-23"
       d="m 165.23426,21.794581 c 0,0 0.25136,3.481917 0.26459,6.76275 6.19125,-0.174625 9.46414,-5.820833 10.80293,-8.9535 z"
       id="path3185"
       style="fill:#ef9e67;stroke:none;stroke-width:0.0396875px;stroke-miterlimit:10" />
    <path
       class="cls-21"
       d="m 178.57455,19.990123 c 0,0 4.19365,-4.384146 5.82084,-8.527521 1.16416,-2.9580417 1.89441,-14.6446873 -9.86367,-15.3114373 a 15.848541,15.848541 0 0 0 -6.93208,1.1377083 c -2.81782,1.17475 -7.12788,4.0719374 -5.12498,14.800791 l 0.36512,3.563938 z"
       id="path3187"
       style="fill:#163560;stroke:none;stroke-width:0.264583;stroke-miterlimit:10" />
    <path
       class="cls-24"
       d="m 115.25712,211.58287 c 0,0 2.94216,0.508 5.35516,0.69056 0.52917,0.0423 1.05834,0.0662 1.49252,0.0662 1.16125,0 3.25702,-0.43921 4.66169,-0.76465 l 0.10584,-0.0265 c 0.61647,-0.14552 1.09008,-0.26458 1.2647,-0.30956 l 0.0741,-0.0185 c 0,0 14.66585,-16.32744 22.8891,-42.49738 0.19077,-0.61118 0.39423,-1.22502 0.60854,-1.85208 4.49792,-13.12862 13.83506,-29.60158 18.75102,-44.51879 0.79375,-2.38125 1.48696,-4.60904 2.11667,-6.72571 0.20373,-0.67733 0.39952,-1.34144 0.58473,-1.9976 3.62744,-12.59417 4.67519,-20.859752 5.64092,-29.69419 l -29.56719,7.522104 c 0,0 -12.41425,53.824186 -33.97779,120.126126 z"
       id="path3189"
       style="fill:#a53d38;stroke:none;stroke-width:0.0396875px;stroke-miterlimit:10" />
    <path
       class="cls-4"
       d="m 163.29751,23.543477 c 0,0 14.31131,3.132666 16.12371,-5.820833 1.8124,-8.9535003 4.88156,-14.5520836 -4.18042,-16.93333356 -9.06198,-2.38124994 -11.53318,0.67468746 -12.86404,3.51366666 -1.33085,2.8389791 -2.75696,18.1953959 0.92075,19.2404999 z"
       id="path3191"
       style="fill:#ffb27d;stroke:none;stroke-width:0.264583;stroke-miterlimit:10" />
    <path
       class="cls-21"
       d="m 168.74528,-0.74527287 c 0,0 1.81769,11.28712487 7.53798,14.05466687 5.72029,2.767541 8.66511,1.680104 8.66511,1.680104 0,0 -3.88673,-4.609042 -3.55336,-11.2209793 0,0 -8.67569,-8.9111665 -12.64973,-4.51379157 z"
       id="path3193"
       style="fill:#163560;stroke:none;stroke-width:0.264583;stroke-miterlimit:10" />
    <path
       class="cls-21"
       d="m 169.54724,0.30247711 c 0,0 -3.4081,1.75154169 -4.58285,3.88672909 -1.17475,2.1351875 -2.44211,6.7574578 -3.77561,6.3235418 0,0 -1.524,-7.7311251 2.61673,-11.09662504 4.39209,-3.56658326 5.74173,0.88635415 5.74173,0.88635415 z"
       id="path3195"
       style="fill:#163560;stroke:none;stroke-width:0.264583;stroke-miterlimit:10" />
    <path
       class="cls-4"
       d="m 176.64839,220.02837 a 16.256,16.256 0 0 0 0.76464,6.91091 c 0,0 0.98187,4.47146 -3.42106,4.55348 -4.40267,0.082 -5.48481,-0.33073 -4.9874,-3.07445 0.49742,-2.74373 1.44754,-7.48242 1.44754,-7.48242 z"
       id="path3197"
       style="fill:#ffb27d;stroke:none;stroke-width:0.264583;stroke-miterlimit:10" />
    <path
       class="cls-25"
       d="m 177.41303,226.93928 c 0,0 0.97658,4.69636 0.4789,6.94003 0,0 -1.49225,0.52916 -4.69106,0.52916 -3.03213,0 -4.81542,-0.52916 -4.81542,-0.52916 0,0 0.11112,-5.10117 0.92075,-7.0538 -0.0106,0 3.12208,4.68313 8.10683,0.11377 z"
       id="path3199"
       style="fill:#c45446;stroke:none;stroke-width:0.0396875px;stroke-miterlimit:10" />
    <path
       class="cls-4"
       d="m 103.57841,228.8681 c 0,0 8.12006,-9.01171 10.61244,-13.59694 l 6.03779,3.09298 -13.49375,12.67354 -3.15648,-0.41804 z"
       id="path3201"
       style="fill:#ffb27d;stroke:none;stroke-width:0.264583;stroke-miterlimit:10" />
    <path
       class="cls-25"
       d="m 98.42168,234.14918 c 0,0 8.73125,0 10.22085,-0.16669 1.48987,-0.16668 2.69902,-2.32568 4.318,-5.55625 0.66411,-1.32291 2.15133,-2.05581 3.67771,-2.45798 l -0.0288,7.92163 h 2.39977 l 2.11667,-8.39258 c 1.43669,-2.64584 0.11377,-5.02709 -0.8972,-7.12259 -1.1774,0 -4.34181,0.79375 -10.33992,7.55915 -1.97088,2.21721 -4.1484,3.01096 -6.31005,2.94481 a 0.45772916,0.45772916 0 0 1 -0.0873,0.045 c -4.987395,2.23308 -5.069415,5.22552 -5.06968,5.22552 z"
       id="path3203"
       style="fill:#c45446;stroke:none;stroke-width:0.0396875px;stroke-miterlimit:10" />
    <path
       class="cls-26"
       d="m 120.61228,212.27343 c 0.52917,0.0423 1.05834,0.0662 1.49252,0.0662 1.16125,0 3.25702,-0.43921 4.66169,-0.76465 l 0.10584,-0.0265 1.2647,-0.30956 0.0741,-0.0185 c 0,0 14.66585,-16.32744 22.8891,-42.49738 0.19077,-0.61118 0.39423,-1.22502 0.60854,-1.85208 4.49792,-13.12862 13.83506,-29.60158 18.75102,-44.51879 0.79375,-2.38125 1.48696,-4.60904 2.11667,-6.72571 0.20373,-0.67733 0.39952,-1.34144 0.58473,-1.9976 l -5.22817,-3.96875 c 0,0 -15.70037,25.42381 -20.5605,49.35008 -4.02987,19.83581 -21.37596,45.54802 -26.76023,53.26327 z"
       id="path3205"
       style="fill:#912f2f;stroke:none;stroke-width:0.0396875px;stroke-miterlimit:10" />
    <path
       class="cls-24"
       d="m 167.38532,161.24589 c -0.087,11.64167 0.50007,38.3831 2.01613,49.45856 0,0 1.43669,1.27265 5.00062,1.28588 3.64861,0.0159 5.29167,-1.32292 5.29167,-1.32292 3.80206,-19.25373 6.50611,-35.18958 8.46667,-48.91617 1.6166,-11.26595 3.05064,-20.92589 4.15396,-29.24175 0.97922,-7.366 1.69598,-13.6816 2.04258,-19.12672 q 0.0688,-1.10596 0.11906,-2.16694 c 0.0423,-0.93398 0.0767,-1.85209 0.0926,-2.71727 0.0159,-0.86519 0.0212,-1.7489 0.0159,-2.58234 h -0.127 l -7.34748,-0.71437 -23.20925,-2.26483 c 0.38365,20.36762 3.54277,51.54612 3.48456,58.30887 z"
       id="path3207"
       style="fill:#a53d38;stroke:none;stroke-width:0.0396875px;stroke-miterlimit:10" />
    <path
       class="cls-26"
       d="m 174.40207,211.99033 a 9.0752082,9.0752082 0 0 0 5.29167,-1.32292 c 3.80206,-19.25373 6.50611,-35.18958 8.46667,-48.91617 1.6166,-11.26595 3.05064,-20.92589 4.15396,-29.24175 0.97922,-7.366 1.69598,-13.6816 2.04258,-19.12672 0.0399,-2.68023 0.0688,-5.25198 0.10054,-7.47978 0.0317,-2.22779 0.0688,-4.16983 0.12965,-5.50068 l -7.47713,4.78631 -7.86606,5.02708 c 0,0 11.16012,10.15206 8.4164,29.34494 -2.74347,19.19287 -9.44298,69.71242 -13.25828,72.42969 z"
       id="path3209"
       style="fill:#912f2f;stroke:none;stroke-width:0.0396875px;stroke-miterlimit:10" />
    <path
       class="cls-5"
       d="m 145.15239,108.12549 c 8.90323,2.31511 50.45339,6.87917 50.8,-3.52425 0.09,-2.54 0,-5.603871 -0.20109,-8.921746 -0.61912,-10.281708 -2.30452,-22.98438 -3.11414,-29.974671 -0.37042,-3.204105 0.85989,-17.552459 -0.0847,-25.373542 a 17.682104,17.682104 0 0 0 -0.57414,-2.989791 c -1.79361,-5.900201 -9.85838,-7.50093 -13.99911,-7.641159 l -12.48833,-0.425979 c 0,0 -12.90108,14.4092 -14.69496,18.835679 -1.79387,4.426479 -2.38125,19.579166 -3.7756,26.921354 -1.39436,7.342214 -6.19919,31.969635 -1.86796,33.094105 z"
       id="path3211"
       style="fill:#bc3f3f;stroke:none;stroke-width:0.264583;stroke-miterlimit:10" />
    <path
       class="cls-24"
       d="m 169.68985,72.957052 c 0,0 6.94531,21.325442 26.07204,22.722442 -0.61913,-10.281708 -2.30452,-22.98438 -3.11415,-29.974671 -0.37042,-3.204105 0.8599,-17.552459 -0.0847,-25.373542 -0.2487,0.05292 -0.4736,0.193146 -0.73289,0.240771 -21.06348,4.069292 -24.05327,27.937354 -22.14033,32.385 z"
       id="path3213"
       style="fill:#a53d38;stroke:none;stroke-width:0.0396875px;stroke-miterlimit:10" />
    <rect
       class="cls-10"
       x="-168.74419"
       y="67.323486"
       width="22.309666"
       height="33.953979"
       transform="matrix(-0.99437498,0.10591699,0.10591699,0.99437498,0,0)"
       id="rect3215"
       style="fill:#2b478b;stroke:none;stroke-width:0.0396875px;stroke-miterlimit:10" />
    <polygon
       class="cls-21"
       points="1278.76,875.66 1273.38,875.23 1260.74,1002.74 1265.17,1003.27 "
       id="polygon3217"
       transform="matrix(-0.26458333,0,0,0.26458333,513.26479,-182.61456)"
       style="fill:#163560;stroke:none;stroke-miterlimit:10" />
    <path
       class="cls-4"
       d="m 193.63728,64.016781 c 0,0 -15.6501,4.783666 -30.60964,6.924146 0,0 -4.93713,2.132541 -2.61938,2.71727 0.59532,0.150813 30.55144,6.680756 34.99115,2.444777 z"
       id="path3219"
       style="fill:#ffb27d;stroke:none;stroke-width:0.264583;stroke-miterlimit:10" />
    <path
       class="cls-5"
       d="m 177.98982,29.700331 c 0,0 8.23119,0.04498 11.74486,4.053417 6.4135,7.318366 7.67292,38.441304 5.6597,42.349226 -0.87074,1.680104 -7.54592,1.817687 -10.36399,-6.323568 -1.46024,-4.214813 -7.84225,-32.403521 -7.04057,-40.079075 z"
       id="path3221"
       style="fill:#bc3f3f;stroke:none;stroke-width:0.264583;stroke-miterlimit:10" />
    <path
       class="cls-4"
       d="m 164.49607,70.721322 c 0,0 -1.83885,-0.171979 -2.1881,-0.759354 -0.6985,-1.17475 -1.80181,-1.158875 -2.71992,-1.322916 -0.9181,-0.164042 -1.95262,-1.161521 -2.13783,-0.960438 -0.18521,0.201083 0.67998,1.322917 1.15888,1.727729 a 4.0322499,4.0322499 0 0 1 -1.63777,-0.251354 c -0.65326,-0.312208 -2.64584,-2.883958 -2.95805,-1.801812 -0.82523,2.846916 0.0317,5.582708 2.31511,5.804958 2.46327,0.240771 8.57779,1.420812 8.57779,1.420812 z"
       id="path3223"
       style="fill:#ffb27d;stroke:none;stroke-width:0.264583;stroke-miterlimit:10" />
    <rect
       class="cls-36"
       x="-140.67235"
       y="232.89503"
       width="448.45374"
       height="1.8785416"
       rx="0.50745595"
       id="rect3341"
       style="fill:#2e3552;stroke-width:0.210503" />
  </g>
</svg>
