<?xml version="1.0" encoding="UTF-8" standalone="no"?>
<!-- Created with Inkscape (http://www.inkscape.org/) -->

<svg
   width="326.4895mm"
   height="302.14359mm"
   viewBox="0 0 326.4895 302.14359"
   version="1.1"
   id="svg135764"
   inkscape:version="1.1.1 (3bf5ae0d25, 2021-09-20, custom)"
   sodipodi:docname="read.svg"
   xmlns:inkscape="http://www.inkscape.org/namespaces/inkscape"
   xmlns:sodipodi="http://sodipodi.sourceforge.net/DTD/sodipodi-0.dtd"
   xmlns="http://www.w3.org/2000/svg"
   xmlns:svg="http://www.w3.org/2000/svg">
  <sodipodi:namedview
     id="namedview135766"
     pagecolor="#ffffff"
     bordercolor="#999999"
     borderopacity="1"
     inkscape:pageshadow="0"
     inkscape:pageopacity="0"
     inkscape:pagecheckerboard="0"
     inkscape:document-units="mm"
     showgrid="false"
     inkscape:zoom="0.15135162"
     inkscape:cx="2150.6211"
     inkscape:cy="607.85605"
     inkscape:window-width="942"
     inkscape:window-height="1034"
     inkscape:window-x="8"
     inkscape:window-y="32"
     inkscape:window-maximized="0"
     inkscape:current-layer="layer1" />
  <defs
     id="defs135761">
    <rect
       x="9760.998"
       y="1909.0098"
       width="1167.7894"
       height="285.12857"
       id="rect125154" />
  </defs>
  <g
     inkscape:label="Layer 1"
     inkscape:groupmode="layer"
     id="layer1"
     transform="translate(199.37304,4.8437001)">
    <path
       class="cls-2"
       d="m -169.17724,215.43252 c 0,0 -0.75406,-91.04313 12.32429,-131.497945 0,0 9.55675,25.246565 5.02709,58.290375 -4.52967,33.04382 -14.08113,54.5174 -17.35138,73.20757 z"
       id="path17447"
       style="opacity:0.6;fill:#47b489;stroke:#090909;stroke-width:0.264583;stroke-miterlimit:10" />
    <path
       class="cls-3"
       d="m -151.71474,141.3386 c -5.11704,10.24996 -11.15219,24.20937 -16.9836,42.17723 -0.59002,18.65048 -0.48155,31.91669 -0.48155,31.91669 3.27025,-18.69017 12.827,-40.15582 17.35403,-73.19698 0.0423,-0.30163 0.0741,-0.59796 0.11112,-0.89694 z"
       id="path17449"
       style="fill:#182834;stroke:#020202;stroke-width:0.264583;stroke-miterlimit:10" />
    <path
       class="cls-2"
       d="m -172.46336,215.43252 c 0,0 14.85106,-56.06257 34.45404,-81.31704 0,0 2.50031,17.87525 -5.29167,35.80606 -7.79198,17.93081 -24.88671,31.84789 -29.16237,45.51098 z"
       id="path17451"
       style="opacity:0.6;fill:#47b489;stroke:#090909;stroke-width:0.264583;stroke-miterlimit:10" />
    <path
       class="cls-2"
       d="m -165.01534,215.43252 c 0,0 -3.19617,-67.86298 -33.66294,-113.36073 0,0 -4.82865,22.48958 13.79537,62.14533 14.85636,31.63623 19.86757,51.2154 19.86757,51.2154 z"
       id="path17453"
       style="opacity:0.6;fill:#47b489;stroke:#090909;stroke-width:0.264583;stroke-miterlimit:10" />
    <path
       class="cls-4"
       d="m -198.67828,102.07179 c 0,0 23.68021,47.55621 33.66294,113.36073"
       id="path17455"
       style="fill:none;stroke:#12100b;stroke-width:0.198437px;stroke-miterlimit:10" />
    <path
       class="cls-4"
       d="m -156.85295,83.945158 c 0,0 -8.03275,60.219192 -12.32429,131.497942"
       id="path17457"
       style="fill:none;stroke:#12100b;stroke-width:0.198437px;stroke-miterlimit:10" />
    <path
       class="cls-4"
       d="m -138.00932,134.11548 c 0,0 -18.35944,32.18127 -34.45404,81.31704"
       id="path17459"
       style="fill:none;stroke:#12100b;stroke-width:0.198437px;stroke-miterlimit:10" />
    <polygon
       class="cls-5"
       points="436.88,1320.48 522.42,1320.48 554.74,936.84 404.56,936.84 "
       id="polygon17461"
       style="fill:#9fbde4;stroke:#060606;stroke-miterlimit:10"
       transform="matrix(0.26458333,0,0,0.26458333,-294.58974,-52.209416)" />
    <polygon
       class="cls-6"
       points="461.58,1320.48 549.06,1004.26 522.42,1320.48 "
       id="polygon17463"
       style="fill:#557bbd;stroke:#010101;stroke-miterlimit:10"
       transform="matrix(0.26458333,0,0,0.26458333,-294.58974,-52.209416)" />
    <rect
       class="cls-5"
       x="-73.175911"
       y="-4.7114086"
       width="107.50285"
       height="205.46219"
       id="rect17465"
       style="fill:#9fbde4;stroke:#060606;stroke-width:0.264583;stroke-miterlimit:10" />
    <rect
       class="cls-7"
       x="-69.781288"
       y="-1.3168162"
       width="100.71629"
       height="198.67563"
       id="rect17467"
       style="fill:#ffffff;stroke:#010101;stroke-width:0.264583;stroke-miterlimit:10" />
    <rect
       class="cls-5"
       x="-20.695654"
       y="-3.2958944"
       width="2.5452917"
       height="202.63379"
       id="rect17469"
       style="fill:#9fbde4;stroke:#060606;stroke-width:0.264583;stroke-miterlimit:10" />
    <rect
       class="cls-5"
       x="-71.437515"
       y="96.748367"
       width="104.03152"
       height="2.5452917"
       id="rect17471"
       style="fill:#9fbde4;stroke:#060606;stroke-width:0.264583;stroke-miterlimit:10" />
    <path
       class="cls-5"
       d="m 89.646111,267.26439 h 2.545292 V 26.006708 A 9.7895832,9.7895832 0 0 0 82.40182,16.217125 h -8.162396 a 9.712854,9.712854 0 0 0 -6.916208,2.862792 l -15.919979,15.922624 1.799166,1.799167 15.919979,-15.919979 a 7.1834374,7.1834374 0 0 1 5.117042,-2.116667 h 8.180917 a 7.2389999,7.2389999 0 0 1 7.233708,7.233709 z"
       id="path17473"
       style="fill:#9fbde4;stroke:#060606;stroke-width:0.264583;stroke-miterlimit:10" />
    <path
       class="cls-3"
       d="M 61.325112,39.444896 56.692258,57.404804 31.620341,32.332896 49.580258,27.69475 c 2.0955,-0.529167 5.487458,1.17475 8.027458,3.717396 v 0 c 2.54,2.545291 4.257146,5.93725 3.717396,8.03275 z"
       id="path17475"
       style="fill:#182834;stroke:#020202;stroke-width:0.264583;stroke-miterlimit:10" />
    <rect
       class="cls-3"
       x="13.676167"
       y="59.013355"
       width="11.51202"
       height="7.876646"
       transform="rotate(-45)"
       id="rect17477"
       style="fill:#182834;stroke:#020202;stroke-width:0.264583;stroke-miterlimit:10" />
    <rect
       class="cls-5"
       x="80.98909"
       y="228.31239"
       width="19.229916"
       height="68.855164"
       id="rect17479"
       style="fill:#9fbde4;stroke:#060606;stroke-width:0.264583;stroke-miterlimit:10" />
    <polygon
       class="cls-6"
       points="1492.19,1104.78 1492.19,1320.48 1455.85,1320.48 "
       id="polygon17481"
       style="fill:#557bbd;stroke:#010101;stroke-miterlimit:10"
       transform="matrix(0.26458333,0,0,0.26458333,-294.58974,-52.209416)" />
    <polygon
       class="cls-8"
       points="784.87,1025.79 740.01,1320.48 763.38,1320.48 822.44,1025.79 "
       id="polygon17483"
       style="fill:#2a7dc1"
       transform="matrix(0.26458333,0,0,0.26458333,-294.58974,-52.209416)" />
    <polygon
       class="cls-8"
       points="883.05,1025.79 868.18,1320.48 891.55,1320.48 920.61,1025.79 "
       id="polygon17485"
       style="fill:#2a7dc1"
       transform="matrix(0.26458333,0,0,0.26458333,-294.58974,-52.209416)" />
    <polygon
       class="cls-9"
       points="990.91,1025.79 1005.77,1320.48 982.4,1320.48 953.34,1025.79 "
       id="polygon17487"
       style="fill:#4a2c60;stroke:#0a0c0b;stroke-width:0.15px;stroke-miterlimit:10"
       transform="matrix(0.26458333,0,0,0.26458333,-294.58974,-52.209416)" />
    <polygon
       class="cls-8"
       points="1080.72,980.02 1133.95,1320.48 1110.57,1320.48 1043.16,980.02 "
       id="polygon17489"
       style="fill:#2a7dc1"
       transform="matrix(0.26458333,0,0,0.26458333,-294.58974,-52.209416)" />
    <polygon
       class="cls-9"
       points="781.79,1046.05 818.38,1046.05 822.44,1025.79 784.87,1025.79 "
       id="polygon17491"
       style="fill:#4a2c60;stroke:#0a0c0b;stroke-width:0.15px;stroke-miterlimit:10"
       transform="matrix(0.26458333,0,0,0.26458333,-294.58974,-52.209416)" />
    <polygon
       class="cls-9"
       points="1056.23,1046.05 1091.05,1046.05 1080.72,980.02 1043.16,980.02 "
       id="polygon17493"
       style="fill:#4a2c60;stroke:#0a0c0b;stroke-width:0.15px;stroke-miterlimit:10"
       transform="matrix(0.26458333,0,0,0.26458333,-294.58974,-52.209416)" />
    <path
       class="cls-8"
       d="m -23.428866,139.47329 c -8.268229,22.36523 -16.28775,48.84737 -21.166667,54.54121 -4.878916,5.69383 -37.422666,6.23622 -43.391666,11.66018 -5.969,5.42396 -7.572375,13.52286 -7.572375,13.52286 h 77.258333 A 27.516666,27.516666 0 0 0 8.6703832,197.09689 L 22.645675,127.28393 c 1.603375,-7.9957 -5.196417,-15.20295 -13.2609168,-13.9991 -12.1814166,1.82298 -26.3789582,8.78681 -32.8136242,26.18846 z"
       id="path17495"
       style="fill:#2a7dc1;stroke-width:0.264583" />
    <polygon
       class="cls-9"
       points="918.62,1046.05 920.61,1025.79 883.05,1025.79 882.02,1046.05 "
       id="polygon17497"
       style="fill:#4a2c60;stroke:#0a0c0b;stroke-width:0.15px;stroke-miterlimit:10"
       transform="matrix(0.26458333,0,0,0.26458333,-294.58974,-52.209416)" />
    <path
       class="cls-9"
       d="M -28.572366,210.34193 A 34.991145,34.991145 0 0 0 5.7387999,182.22731 l 8.7047911,-43.44723 -0.386291,0.0741 c -21.7593333,4.19894 -39.589604,19.70352 -47.238708,40.50242 -3.175,8.636 -5.992812,15.34583 -8.175625,17.88848 -4.881562,5.69648 -37.42002,6.23887 -43.391666,11.66019 -0.505354,0.46037 -0.971021,0.94456 -1.415521,1.43668 z"
       id="path17499"
       style="fill:#4a2c60;stroke:#0a0c0b;stroke-width:0.0396875px;stroke-miterlimit:10" />
    <path
       class="cls-10"
       d="m -72.014303,94.920101 -19.269604,50.874079 15.9385,15.95702 17.901708,-33.41687 c 0,0 -2.338917,-13.12069 -14.570604,-33.414229 z"
       id="path17501"
       style="fill:#eb856d;stroke:#0a0c0b;stroke-width:0.0396875px;stroke-miterlimit:10" />
    <path
       class="cls-11"
       d="m -72.014303,94.920101 c -5.315479,1.164167 -16.933333,45.534789 -16.933333,45.534789 l 20.431124,18.82511 16.5735,-35.41977 c 0,0 -8.89,-31.390171 -20.071291,-28.940129 z"
       id="path17503"
       style="fill:#fcbe31;stroke:#0a0c0b;stroke-width:0.264583;stroke-miterlimit:10" />
    <path
       class="cls-3"
       d="m -55.382595,113.94893 -18.785417,40.12407 5.648854,5.2017 16.5735,-35.41977 c 0,0 -1.256771,-4.46616 -3.436937,-9.906 z"
       id="path17505"
       style="fill:#182834;stroke:#020202;stroke-width:0.264583;stroke-miterlimit:10" />
    <path
       class="cls-7"
       d="m -107.30707,187.37345 -25.57463,53.6919 25.88154,18.27477 28.355398,-59.09733 c 0,0 35.454167,9.31333 53.535791,1.48696 11.90625,-5.15144 16.4041669,-29.71536 16.4041669,-29.71536 H -82.978637 a 26.950458,26.950458 0 0 0 -24.328433,15.35906 z"
       id="path17507"
       style="fill:#ffffff;stroke:#010101;stroke-width:0.264583;stroke-miterlimit:10" />
    <path
       class="cls-12"
       d="m -107.30707,187.37345 -25.57463,53.6919 25.88154,18.27477 28.355398,-59.09733 c 0,0 35.454167,9.31333 53.535791,1.48696 11.90625,-5.15144 16.4041669,-29.71536 16.4041669,-29.71536 H -82.978637 a 26.950458,26.950458 0 0 0 -24.328433,15.35906 z"
       id="path17509"
       style="fill:#ec6735;stroke:#0a0c0b;stroke-width:0.264583;stroke-miterlimit:10" />
    <path
       class="cls-11"
       d="M -8.6968666,172.01439 H -66.047949 c 0,0 5.598583,-34.05716 5.736166,-38.91227 0.137584,-4.8551 -11.70252,-38.182019 -11.70252,-38.182019 L -8.6968666,83.577387 c 0,0 10.8161665,37.118423 0,88.437003 z"
       id="path17511"
       style="fill:#fcbe31;stroke:#0a0c0b;stroke-width:0.264583;stroke-miterlimit:10" />
    <path
       class="cls-3"
       d="m -8.6968666,83.577387 -3.6168544,24.974043 a 262.31056,262.31056 0 0 1 -3.439583,63.46296 h 7.0696666 C 2.1192999,120.69581 -8.6968666,83.577387 -8.6968666,83.577387 Z"
       id="path17513"
       style="fill:#182834;stroke:#020202;stroke-width:0.264583;stroke-miterlimit:10" />
    <path
       class="cls-13"
       d="M -5.6647417,83.577387"
       id="path17515"
       style="fill:none;stroke:#182834;stroke-width:0.198437px;stroke-miterlimit:10" />
    <ellipse
       class="cls-3"
       cx="-273.03741"
       cy="43.330868"
       rx="5.5461016"
       ry="15.821847"
       transform="rotate(-55.195988)"
       id="ellipse17517"
       style="fill:#182834;stroke:#020202;stroke-width:0.264226;stroke-miterlimit:10" />
    <path
       class="cls-3"
       d="m -106.65355,252.06143 c -1.99232,-2.77283 -5.10911,-5.715 -8.77623,-8.28146 -4.01638,-2.81252 -8.128,-4.80748 -11.57817,-5.62239 l 0.14552,-0.61913 c 3.5269,0.83079 7.7179,2.86279 11.79777,5.72029 3.72534,2.6088 6.89504,5.60388 8.92704,8.43228 z"
       id="path17519"
       style="fill:#182834;stroke:#020202;stroke-width:0.264583;stroke-miterlimit:10" />
    <path
       class="cls-14"
       d="m -110.02699,127.70727 c 0,0 3.30465,-2.74373 8.90323,-3.91054 0,0 21.497394,29.56983 25.778353,37.9677 0,0 -4.884209,7.9375 -13.448771,6.7654 -10.268479,-1.39965 -21.232812,-40.82256 -21.232812,-40.82256 z"
       id="path17521"
       style="fill:#f7c5aa;stroke-width:0.264583" />
    <path
       class="cls-14"
       d="m -56.250429,75.557866 2.301875,16.13961 c 0,0 2.944813,5.715 7.802563,5.715 5.757333,0 10.89025,-4.058708 11.355916,-9.162547 L -46.103658,57.944554 Z"
       id="path17523"
       style="fill:#f7c5aa;stroke-width:0.264583" />
    <path
       class="cls-3"
       d="m -46.145991,101.23041 c -4.429125,0 -7.582958,-2.791351 -9.445625,-5.135559 l 0.497417,-0.396875 c 1.775354,2.233083 4.7625,4.894794 8.948208,4.894794 6.051021,0 11.543771,-3.455461 13.668375,-8.598961 l 0.590021,0.243417 c -2.219855,5.378979 -7.948084,8.993184 -14.258396,8.993184 z"
       id="path17525"
       style="fill:#182834;stroke:#020202;stroke-width:0.264583;stroke-miterlimit:10" />
    <path
       class="cls-3"
       d="M -91.125157,117.2721 -118.90641,76.862262 c -4.19893,8.837083 -3.49514,15.830047 -3.49514,15.830047 l 27.781247,40.409811 c 0,0 -0.6985,-6.98235 3.495146,-15.83002 z"
       id="path17527"
       style="fill:#182834;stroke:#020202;stroke-width:0.264583;stroke-miterlimit:10" />
    <path
       class="cls-7"
       d="m -122.39362,92.692309 27.828879,40.409811 a 75.109916,75.109916 0 0 1 28.868688,-19.88608 L -93.524928,72.8062 a 75.109916,75.109916 0 0 0 -28.868692,19.886109 z"
       id="path17529"
       style="fill:#ffffff;stroke:#010101;stroke-width:0.264583;stroke-miterlimit:10" />
    <path
       class="cls-2"
       d="m -115.20224,93.271747 a 69.937312,69.937312 0 0 1 19.650604,-13.53611 l 21.402145,31.070043 a 81.354082,81.354082 0 0 0 -19.650604,13.53609 z"
       id="path17531"
       style="opacity:0.6;fill:#47b489;stroke:#090909;stroke-width:0.264583;stroke-miterlimit:10" />
    <path
       class="cls-15"
       d="m -98.268907,117.83831 4.479396,6.50346 a 81.354082,81.354082 0 0 1 19.650604,-13.53609 L -92.157032,84.64895 Z"
       id="path17533"
       style="fill:#ffde00;stroke-width:0.264583" />
    <path
       class="cls-14"
       d="m -98.951532,96.751018 -10.152058,6.170082 c 0.96572,-3.25702 2.00818,-6.934728 2.11666,-8.016874 0.22754,-2.061104 -1.42346,-3.257021 -1.42346,-3.257021 l -5.73352,11.718395 -2.17223,11.94594 6.28915,12.39573 8.90323,-3.91054 c -0.10848,-4.34182 -1.85208,-10.20498 -1.85208,-10.20498 0,0 5.103808,-6.18861 5.320766,-9.55411 0.216959,-3.3655 -1.296458,-7.286622 -1.296458,-7.286622 z"
       id="path17535"
       style="fill:#f7c5aa;stroke-width:0.264583" />
    <polygon
       class="cls-16"
       points="685.66,1160.53 628.48,1120.49 601.92,1188.23 645.57,1223.93 "
       id="polygon17537"
       style="fill:#f4bbaa"
       transform="matrix(0.26458333,0,0,0.26458333,-294.58974,-52.209416)" />
    <path
       class="cls-11"
       d="m -165.44397,248.35727 c 0,0 2.81517,-6.985 32.18392,8.54075 l 10.98285,12.35075 c 0,0 0.28311,5.95047 -7.78404,14.48858 z"
       id="path17539"
       style="fill:#fcbe31;stroke:#0a0c0b;stroke-width:0.264583;stroke-miterlimit:10" />
    <path
       class="cls-3"
       d="m -165.44397,248.35727 c -2.04523,2.04522 4.21746,11.62314 13.98852,21.39156 9.77106,9.76841 19.34898,16.03375 21.39421,13.98852 2.04523,-2.04523 -4.21746,-11.62315 -13.98852,-21.39421 -9.77106,-9.77106 -19.34898,-16.03904 -21.39421,-13.98587 z"
       id="path17541"
       style="fill:#182834;stroke:#020202;stroke-width:0.264583;stroke-miterlimit:10" />
    <path
       class="cls-3"
       d="m -128.00278,281.1021 c -1.80446,-6.13833 -9.06727,-14.31396 -14.84313,-20.08981 -1.72508,-1.72509 -10.69445,-10.5119 -17.7456,-13.93032 l 0.26458,-0.57414 c 7.14375,3.46604 16.18192,12.31635 17.92023,14.05466 5.82083,5.82084 13.16302,14.09171 15.00452,20.35969 z"
       id="path17543"
       style="fill:#182834;stroke:#020202;stroke-width:0.264583;stroke-miterlimit:10" />
    <path
       class="cls-10"
       d="M 3.5956749,152.31352 21.187821,140.75123 a 83.531603,83.531603 0 0 0 -3.175,-14.21607 l -21.0872919,7.493 z"
       id="path17545"
       style="fill:#eb856d;stroke:#0a0c0b;stroke-width:0.0396875px;stroke-miterlimit:10" />
    <path
       class="cls-14"
       d="m 9.0407998,133.10212 c -12.0200207,0 -41.6163118,14.88546 -41.6163118,14.88546 l 4.66725,10.49867 c 0,0 34.2899994,-2.1008 43.621853,-7.46655 9.331854,-5.36575 6.765396,-17.91758 -6.6727912,-17.91758 z"
       id="path17547"
       style="fill:#f7c5aa;stroke-width:0.264583" />
    <path
       class="cls-11"
       d="M -6.913575,135.38018 C -14.144637,116.71912 -20.407325,85.22045 -8.6968666,83.566804 -0.61649171,82.429095 12.9143,100.38904 22.478987,124.88416 Z"
       id="path17549"
       style="fill:#fcbe31;stroke:#0a0c0b;stroke-width:0.264583;stroke-miterlimit:10" />
    <path
       class="cls-3"
       d="m -7.2099083,135.50718 c -3.5851037,-9.26041 -7.9057497,-24.37606 -8.2946877,-36.578642 l 0.635,-0.02117 c 0.386292,12.123212 4.685771,27.170062 8.2523544,36.369632 z"
       id="path17551"
       style="fill:#182834;stroke:#020202;stroke-width:0.264583;stroke-miterlimit:10" />
    <path
       class="cls-10"
       d="m -54.432741,88.297554 c 9.114896,-7.879292 7.58825,-18.994438 7.58825,-18.994438 l 0.0979,-10.104437 -0.08731,0.01323 -9.416521,16.345958 z"
       id="path17553"
       style="fill:#eb856d;stroke:#0a0c0b;stroke-width:0.0396875px;stroke-miterlimit:10" />
    <path
       class="cls-14"
       d="m -59.401616,42.315625 c -14.816666,1.516062 -19.827875,16.562908 -12.829646,32.191846 6.998229,15.628963 14.930438,11.429999 20.529021,4.43177 5.598583,-6.998229 7.977187,-19.327812 5.36575,-27.058937 -2.799292,-8.28145 -9.694333,-9.898054 -13.065125,-9.564679 z"
       id="path17555"
       style="fill:#f7c5aa;stroke-width:0.264583" />
    <path
       class="cls-3"
       d="m -80.978387,41.381646 c -5.556249,2.825749 -8.863541,13.99645 -3.616854,19.595033 5.246688,5.598583 11.90625,2.764896 17.613313,-2.214562 4.59052,-4.0005 7.696729,-9.448271 7.696729,-9.448271 0,0 1.420812,6.506104 5.950479,9.913937 4.529666,3.407833 10.49602,7.46125 10.49602,7.46125 0,0 2.950105,-14.909271 1.852084,-20.407304 -1.632479,-8.281458 -8.863542,-6.299729 -8.863542,-6.299729 0,0 -2.116666,-5.378979 -7.696729,-4.781021 -9.789583,1.058333 -14.480645,11.662833 -14.480645,11.662833 0,0 -2.770188,-8.630708 -8.950855,-5.482166 z"
       id="path17557"
       style="fill:#182834;stroke:#020202;stroke-width:0.264583;stroke-miterlimit:10" />
    <path
       class="cls-14"
       d="m -44.823074,157.31943 -8.863542,15.74536 c 0,0 3.042708,1.23031 4.894792,-1.65894 1.852083,-2.88925 5.947833,-10.58333 5.947833,-10.58333 z"
       id="path17559"
       style="fill:#f7c5aa;stroke-width:0.264583" />
    <path
       class="cls-14"
       d="m -50.186179,63.741575 c 0,0 -1.981729,-8.945563 1.63248,-10.345208 3.614208,-1.399646 4.198937,7.784041 1.748895,11.707812 z"
       id="path17565"
       style="fill:#f7c5aa;stroke-width:0.264583" />
    <path
       class="cls-3"
       d="m -48.791824,171.40585 c 1.865312,-2.88925 5.947833,-10.58333 5.947833,-10.58333 l -1.979083,-1.40494 -4.273021,12.40631 a 4.3762083,4.3762083 0 0 0 0.304271,-0.41804 z"
       id="path17567"
       style="fill:#182834;stroke:#020202;stroke-width:0.264583;stroke-miterlimit:10" />
    <path
       class="cls-14"
       d="m -38.290512,178.838 -4.709583,-3.96875 a 5.1196874,5.1196874 0 0 1 -1.820334,-3.91584 v -13.62604 l 12.244917,-9.33185 4.66725,10.49866 -7.289271,9.15459 c 0,0 0.640292,10.78177 -3.092979,11.18923 z"
       id="path17571"
       style="fill:#f7c5aa;stroke-width:0.264583" />
    <polygon
       class="cls-3"
       points="956.02,862.55 956.02,808.67 954.04,808.67 954.04,860.88 "
       id="polygon17573"
       style="fill:#182834;stroke:#020202;stroke-miterlimit:10"
       transform="matrix(0.26458333,0,0,0.26458333,-294.58974,-52.209416)" />
    <path
       class="cls-3"
       d="m -38.55245,178.61575 0.264584,0.22225 a 2.1166666,2.1166666 0 0 0 0.264583,-0.0529 v -13.59429 h -0.529167 z"
       id="path17575"
       style="fill:#182834;stroke:#020202;stroke-width:0.264583;stroke-miterlimit:10" />
    <polygon
       class="cls-3"
       points="701.05,586.31 687,594.11 709.09,556.01 "
       id="polygon17577"
       style="fill:#182834;stroke:#020202;stroke-miterlimit:10"
       transform="matrix(0.26458333,0,0,0.26458333,-294.58974,-52.209416)" />
    <path
       class="cls-3"
       d="m -98.268907,98.920601 -7.485063,5.140849 0.29898,0.43392 7.323666,-5.027082 c -0.05027,-0.1905 -0.09525,-0.373062 -0.137583,-0.547687 z"
       id="path17579"
       style="fill:#182834;stroke:#020202;stroke-width:0.264583;stroke-miterlimit:10" />
    <path
       class="cls-3"
       d="m -97.723865,101.80985 -7.014105,6.08542 0.34131,0.39687 6.731003,-5.82083 c -0.01323,-0.23548 -0.0344,-0.44979 -0.05821,-0.66146 z"
       id="path17581"
       style="fill:#182834;stroke:#020202;stroke-width:0.264583;stroke-miterlimit:10" />
    <path
       class="cls-3"
       d="m -60.626637,133.14445 c -0.01852,-0.13758 -1.878541,-13.91179 -8.355541,-28.51943 l 0.582083,-0.26459 c 6.516687,14.69761 8.387292,28.55648 8.403167,28.69671 z"
       id="path17583"
       style="fill:#182834;stroke:#020202;stroke-width:0.264583;stroke-miterlimit:10" />
    <polygon
       class="cls-16"
       points="780.1,1260.96 832.41,1260.96 840.34,1134.5 780.1,1134.5 "
       id="polygon17585"
       style="fill:#f4bbaa"
       transform="matrix(0.26458333,0,0,0.26458333,-294.58974,-52.209416)" />
    <polygon
       class="cls-3"
       points="833.49,1243.79 840.34,1134.5 780.1,1134.5 780.1,1213.36 "
       id="polygon17587"
       style="fill:#182834;stroke:#020202;stroke-miterlimit:10"
       transform="matrix(0.26458333,0,0,0.26458333,-294.58974,-52.209416)" />
    <path
       class="cls-11"
       d="m -68.916033,297.1676 h -26.881666 c 0,-10.14942 7.609417,-15.74536 7.609417,-15.74536 h 13.840354 c 0,0 5.254625,6.99823 5.431895,15.74536 z"
       id="path17589"
       style="fill:#fcbe31;stroke:#0a0c0b;stroke-width:0.264583;stroke-miterlimit:10" />
    <rect
       class="cls-3"
       x="-95.638885"
       y="294.98209"
       width="26.545647"
       height="0.63499999"
       id="rect17591"
       style="fill:#182834;stroke:#020202;stroke-width:0.264583;stroke-miterlimit:10" />
    <path
       class="cls-3"
       d="m -79.388241,201.7906 0.743479,-1.54517 c 0,0 21.928667,5.75734 40.089667,4.41061 v 0 c 0,0 -24.135292,-10.53836 -41.986729,-10.53836 z"
       id="path17593"
       style="fill:#182834;stroke:#020202;stroke-width:0.264583;stroke-miterlimit:10" />
    <polygon
       class="cls-3"
       points="789.93,1008.84 759.33,962.77 672.25,1151.54 709.04,1177.51 "
       id="polygon17595"
       style="fill:#182834;stroke:#020202;stroke-miterlimit:10"
       transform="matrix(0.26458333,0,0,0.26458333,-294.58974,-52.209416)" />
    <path
       class="cls-12"
       d="m -95.027761,208.6195 v 57.41458 h 28.979812 V 208.6195 a 14.491229,14.491229 0 0 0 -14.493875,-14.50182 v 0 a 14.488583,14.488583 0 0 0 -14.485937,14.50182 z"
       id="path17597"
       style="fill:#ec6735;stroke:#0a0c0b;stroke-width:0.264583;stroke-miterlimit:10" />
    <rect
       class="cls-3"
       x="-95.027809"
       y="261.15512"
       width="28.979813"
       height="0.63499999"
       id="rect17599"
       style="fill:#182834;stroke:#020202;stroke-width:0.264583;stroke-miterlimit:10" />
    <rect
       class="cls-17"
       x="-9.829134"
       y="156.69501"
       width="5.8314166"
       height="140.47258"
       id="rect17603"
       style="fill:#d9e9f9;stroke:#ffffff;stroke-width:0.264583;stroke-miterlimit:10" />
    <rect
       class="cls-17"
       x="109.60621"
       y="156.69501"
       width="5.8314166"
       height="140.47258"
       id="rect17605"
       style="fill:#d9e9f9;stroke:#ffffff;stroke-width:0.264583;stroke-miterlimit:10" />
    <rect
       class="cls-17"
       x="-21.3783"
       y="153.70258"
       width="148.36246"
       height="5.9822292"
       id="rect17607"
       style="fill:#d9e9f9;stroke:#ffffff;stroke-width:0.264583;stroke-miterlimit:10" />
  </g>
</svg>
