<?xml version="1.0" encoding="UTF-8" standalone="no"?>
<!-- Created with Inkscape (http://www.inkscape.org/) -->

<svg
   width="301.6254mm"
   height="296.02621mm"
   viewBox="0 0 301.6254 296.02621"
   version="1.1"
   id="svg131075"
   inkscape:version="1.1.1 (3bf5ae0d25, 2021-09-20, custom)"
   sodipodi:docname="seniors.svg"
   xmlns:inkscape="http://www.inkscape.org/namespaces/inkscape"
   xmlns:sodipodi="http://sodipodi.sourceforge.net/DTD/sodipodi-0.dtd"
   xmlns="http://www.w3.org/2000/svg"
   xmlns:svg="http://www.w3.org/2000/svg">
  <sodipodi:namedview
     id="namedview131077"
     pagecolor="#ffffff"
     bordercolor="#999999"
     borderopacity="1"
     inkscape:pageshadow="0"
     inkscape:pageopacity="0"
     inkscape:pagecheckerboard="0"
     inkscape:document-units="mm"
     showgrid="false"
     inkscape:zoom="0.06486482"
     inkscape:cx="1672.7095"
     inkscape:cy="2636.2518"
     inkscape:window-width="962"
     inkscape:window-height="1034"
     inkscape:window-x="8"
     inkscape:window-y="32"
     inkscape:window-maximized="0"
     inkscape:current-layer="g135047" />
  <defs
     id="defs131072">
    <rect
       x="9760.998"
       y="1909.0098"
       width="1167.7894"
       height="285.12857"
       id="rect120278" />
    <style
       id="style19686">.cls-1{fill:#2e4b9b;}.cls-2,.cls-8{fill:#d1e09a;}.cls-2{stroke:#090909;}.cls-10,.cls-11,.cls-12,.cls-13,.cls-17,.cls-18,.cls-19,.cls-2,.cls-20,.cls-21,.cls-23,.cls-24,.cls-25,.cls-26,.cls-27,.cls-28,.cls-29,.cls-3,.cls-30,.cls-4,.cls-5,.cls-6,.cls-7,.cls-9{stroke-miterlimit:10;}.cls-3{fill:#fccc35;stroke:#020202;}.cls-4{fill:#aed5a8;}.cls-4,.cls-6,.cls-7{stroke:#010101;}.cls-5{fill:#93c3b6;stroke:#060606;}.cls-6{fill:#f49c5a;}.cls-7{fill:#e93c8c;}.cls-9{fill:#faf9e1;}.cls-10,.cls-11,.cls-12,.cls-13,.cls-23,.cls-24,.cls-25,.cls-26,.cls-27,.cls-28,.cls-30,.cls-9{stroke:#0a0c0b;}.cls-10,.cls-23,.cls-24,.cls-25,.cls-26,.cls-27,.cls-28,.cls-9{stroke-width:0.15px;}.cls-10{fill:#a5ced9;}.cls-11{fill:#8ebeba;}.cls-12{fill:#f7bcbe;}.cls-13{fill:#eb6b5b;}.cls-14{fill:#090707;}.cls-15,.cls-18,.cls-19,.cls-21,.cls-24{fill:#fff;}.cls-16{fill:#0a0c0b;}.cls-17,.cls-20,.cls-29{fill:none;}.cls-17{stroke:#fff;}.cls-18{stroke:#0d100f;}.cls-18,.cls-19{opacity:0.64;}.cls-19,.cls-20,.cls-21{stroke:#080a0a;}.cls-22{fill:#080a0a;}.cls-23{fill:#caa57d;}.cls-25{fill:#577d32;}.cls-27{fill:#aedbe4;}.cls-28{fill:#e13565;}.cls-29{stroke:#000;stroke-width:0.25px;}.cls-30{fill:#61602b;}</style>
    <rect
       x="9760.998"
       y="1909.0098"
       width="1167.7894"
       height="285.12857"
       id="rect124680" />
    <rect
       x="9760.998"
       y="1909.0098"
       width="1167.7894"
       height="285.12857"
       id="rect125150" />
    <rect
       x="9760.998"
       y="1909.0098"
       width="1167.7894"
       height="285.12857"
       id="rect125154" />
    <rect
       x="9760.998"
       y="1909.0098"
       width="1167.7894"
       height="285.12857"
       id="rect125158" />
    <rect
       x="9760.998"
       y="1909.0098"
       width="1167.7894"
       height="285.12857"
       id="rect125162" />
  </defs>
  <g
     inkscape:label="Layer 1"
     inkscape:groupmode="layer"
     id="layer1"
     transform="translate(-573.2836,144.65379)">
    <g
       id="g135047"
       transform="matrix(0.26458333,0,0,0.26458333,-2271.7829,2.894945)">
      <path
         class="cls-3"
         d="m 10904.466,-57.606514 c -230.847,234.949974 1109.466,339.217754 899.897,197.772744 -140.187,-96.975785 -867.102,-217.286164 -899.897,-197.772744 z"
         id="path19695"
         sodipodi:nodetypes="ccc"
         style="stroke-width:2.27429" />
      <path
         class="cls-5"
         d="m 11232.509,19.150821 598.139,142.302409 c -3.73,-14.03237 -9.984,-21.87868 -14.806,-26.40452 -9.711,-9.09716 -18.535,-9.27911 -27.041,-19.30873 -3.457,-4.07098 -10.302,-12.05375 -9.666,-21.241885 1.047,-14.805637 20.469,-18.626446 23.084,-27.08681 7.096,-23.33423 -106.687,-106.004722 -239.369,-125.563628 -140.21,-20.696052 -260.77,35.160545 -330.341,77.303164 z"
         id="path19699"
         style="stroke-width:2.27429" />
      <path
         class="cls-6"
         d="m 10906.149,-395.81639 c -3.275,2.77464 -23.38,20.2412 -19.559,38.45827 3.047,14.55546 19.672,21.46931 38.89,29.45207 9.097,3.82081 25.358,9.643 83.08,21.01446 19.877,3.93452 33.091,6.23155 36.798,15.78358 3.707,9.55202 -3.98,20.24119 -5.254,22.08337 -13.054,18.69467 -37.867,18.19433 -74.665,23.12954 -50.034,6.66368 -27.746,10.64369 -120.924,30.49825 -23.266,4.95795 -44.28,8.86974 -54.583,26.26806 -0.864,1.45555 -9.438,16.30667 -4.207,31.54443 1.728,5.04892 5.595,11.91728 36.798,29.56578 21.651,12.14472 32.477,18.19434 48.374,24.17572 21.833,8.187451 32.09,8.64231 36.798,17.875933 4.708,9.233623 0.887,20.081993 -3.138,28.405899 l 328.043,76.757335 c 59.132,-17.2846146 122.221,-33.682256 189.267,-48.374178 q 73.346,-16.056497 141.734,-27.291497 a 1630.2348,1630.2348 0 0 0 -311.919,-208.802692 1630.1438,1630.1438 0 0 0 -345.533,-130.54433 z"
         id="path19701"
         style="stroke-width:2.27429" />
      <path
         class="cls-7"
         d="m 10906.149,-395.81639 a 414.58058,414.58058 0 0 1 92.404,-21.67399 c 101.388,-11.5534 124.358,-11.37146 124.358,-11.37146 14.988,0 38.345,0.81874 44.508,-11.37146 4.549,-9.09716 -2.433,-21.08268 -3.434,-22.74291 -15.079,-25.90418 -52.582,-17.78496 -61.611,-37.63953 -2.638,-5.84492 -3.843,-16.30666 7.983,-35.38797 a 455.6088,455.6088 0 0 1 54.765,-13.64575 c 19.764,-3.63886 41.893,-6.36801 114.101,-6.82287 129.294,-0.81875 86.992,7.77807 143.758,6.82287 a 119.94613,119.94613 0 0 1 57.062,14.85112 c 12.304,6.95934 14.442,11.53066 14.829,14.82838 1.478,12.64507 -20.674,26.0179 -34.228,34.22809 -8.961,5.41281 -21.447,11.75809 -35.366,25.01721 -4.162,3.98001 -7.277,7.45967 -6.822,11.37145 0.886,8.66505 17.898,13.64575 27.291,15.92004 43.325,11.09854 92.996,12.32666 128.907,14.85113 0,0 37.503,2.61543 90.153,19.37696 11.189,3.57064 26.2,8.89248 30.794,21.69674 5.003,13.9414 -5.186,28.92898 -5.709,29.56579 -8.483,12.09923 -36.57,18.19433 -92.404,29.56578 -13.873,2.86561 -33.592,6.93659 -49.057,22.74292 -4.912,5.02618 -9.711,10.07511 -9.097,15.92004 1.16,11.91729 23.675,19.30873 67.319,29.56579 50.762,12.05374 79.123,16.05649 120.947,27.29149 51.308,13.89592 64.681,23.06132 69.593,36.52512 6.664,18.19433 -4.867,37.43484 -5.708,38.77667 -8.665,13.98689 -22.447,19.49068 -49.057,29.6795 -29.679,11.37146 -41.437,10.30254 -53.627,23.948293 -3.071,3.456923 -12.509,14.009635 -10.258,25.017205 2.275,11.644372 16.353,17.762216 28.52,22.742914 69.616,28.974473 89.221,28.269442 102.684,47.91932 1.774,2.6154351 14.533,21.85594 7.983,42.210848 a 43.55268,43.55268 0 0 1 -14.828,20.468623 l -239.961,-122.584306 z"
         id="path19703"
         style="stroke-width:2.27429" />
      <rect
         class="cls-11"
         x="11332.487"
         y="-367.75168"
         width="252.65102"
         height="117.30795"
         rx="22.651943"
         id="rect19719"
         style="stroke-width:2.27429" />
      <rect
         class="cls-11"
         x="11639.221"
         y="-367.75168"
         width="252.65102"
         height="117.30795"
         rx="22.651943"
         id="rect19721"
         style="stroke-width:2.27429" />
      <rect
         class="cls-12"
         x="11354.979"
         y="-352.17276"
         width="207.66554"
         height="86.150162"
         rx="16.625071"
         id="rect19723"
         style="stroke-width:2.27429" />
      <rect
         class="cls-12"
         x="11661.714"
         y="-352.17276"
         width="207.66554"
         height="86.150162"
         rx="16.625071"
         id="rect19725"
         style="stroke-width:2.27429" />
      <line
         class="cls-12"
         x1="11585.138"
         y1="-309.09769"
         x2="11639.221"
         y2="-309.09769"
         id="line19727"
         style="stroke-width:2.27429" />
      <rect
         class="cls-13"
         x="10754.145"
         y="-237.70523"
         width="217.19482"
         height="120.46922"
         id="rect19739"
         style="stroke-width:2.27429" />
      <line
         class="cls-13"
         x1="10971.34"
         y1="-177.48196"
         x2="11036.135"
         y2="-177.48196"
         id="line19741"
         style="stroke-width:2.27429" />
      <line
         class="cls-13"
         x1="10797.948"
         y1="-203.24973"
         x2="10923.875"
         y2="-203.24973"
         id="line19743"
         style="stroke-width:2.27429" />
      <ellipse
         class="cls-14"
         cx="10862.742"
         cy="-185.89687"
         rx="36.52512"
         ry="17.330101"
         id="ellipse19745"
         style="stroke-width:2.27429" />
      <rect
         class="cls-13"
         x="11036.135"
         y="-237.70523"
         width="217.19482"
         height="120.46922"
         id="rect19747"
         style="stroke-width:2.27429" />
      <line
         class="cls-13"
         x1="11079.938"
         y1="-203.24973"
         x2="11205.863"
         y2="-203.24973"
         id="line19749"
         style="stroke-width:2.27429" />
      <ellipse
         class="cls-14"
         cx="11144.731"
         cy="-185.89687"
         rx="36.52512"
         ry="17.330101"
         id="ellipse19751"
         style="stroke-width:2.27429" />
      <ellipse
         class="cls-15"
         cx="11382.937"
         cy="-61.839939"
         rx="67.77388"
         ry="58.312832"
         id="ellipse19753"
         style="stroke-width:2.27429" />
      <circle
         class="cls-16"
         cx="11382.937"
         cy="-61.839939"
         r="21.037195"
         id="circle19755"
         style="stroke-width:2.27429" />
      <ellipse
         class="cls-15"
         cx="11564.106"
         cy="-61.839939"
         rx="67.77388"
         ry="58.312832"
         id="ellipse19757"
         style="stroke-width:2.27429" />
      <circle
         class="cls-16"
         cx="11564.106"
         cy="-61.839939"
         r="21.037195"
         id="circle19759"
         style="stroke-width:2.27429" />
      <path
         class="cls-17"
         d="m 11295.989,-124.92874 c 3.184,-4.27567 31.021,-40.23222 78.554,-40.45965 36.571,-0.18194 60.883,20.90074 66.66,26.1771"
         id="path19761"
         style="stroke-width:2.27429" />
      <path
         class="cls-17"
         d="m 11498.333,-141.57656 a 106.27764,106.27764 0 0 1 52.309,-16.67055 c 9.438,-0.40938 33.432,-1.11441 57.13,14.28255 a 90.22114,90.22114 0 0 1 26.2,26.17709"
         id="path19763"
         style="stroke-width:2.27429" />
      <polygon
         class="cls-21"
         points="391.55,109.74 405.96,118.98 386.28,130.63 358.97,130.63 344.33,118.98 365.66,107.73 "
         id="polygon19771"
         transform="matrix(2.2742914,0,0,2.2742914,10344.967,-687.56252)" />
      <polygon
         class="cls-21"
         points="473.85,107.73 494.31,119.18 472.64,130.63 442.12,130.63 427.25,119.18 447.74,107.73 "
         id="polygon19773"
         transform="matrix(2.2742914,0,0,2.2742914,10344.967,-687.56252)" />
      <polyline
         class="cls-20"
         points="348.2 104.92 365.33 99.3 388.69 99.3 396.76 104.92"
         id="polyline19775"
         transform="matrix(2.2742914,0,0,2.2742914,10344.967,-687.56252)" />
      <polyline
         class="cls-20"
         points="433.14 104.92 446.94 99.3 470.23 99.3 485.09 107.73"
         id="polyline19777"
         transform="matrix(2.2742914,0,0,2.2742914,10344.967,-687.56252)" />
      <ellipse
         class="cls-22"
         cx="11192.095"
         cy="-404.43597"
         rx="29.224646"
         ry="15.806325"
         id="ellipse19779"
         style="stroke-width:2.27429" />
      <ellipse
         class="cls-22"
         cx="11392.915"
         cy="-404.43597"
         rx="29.224646"
         ry="15.806325"
         id="ellipse19781"
         style="stroke-width:2.27429" />
      <polygon
         points="577.915,455.219 594.787,455.221 594.783,499.316 583.351,499.315 "
         fill="#ffb8b8"
         id="polygon23676"
         transform="matrix(1.5337484,0,0,1.5337484,10762.754,-220.93027)" />
      <path
         d="m 11644.944,539.88324 h 33.816 v 21.2915 h -55.108 v 0 a 21.291388,21.291388 0 0 1 21.292,-21.2915 z"
         fill="#2f2e41"
         id="path23678"
         style="stroke-width:1.53375" />
      <polygon
         points="532.415,455.219 549.287,455.221 549.283,499.316 537.851,499.315 "
         fill="#ffb8b8"
         id="polygon23680"
         transform="matrix(1.5337484,0,0,1.5337484,10762.754,-220.93027)" />
      <path
         d="m 11575.158,539.88324 h 33.816 v 21.2915 h -55.107 v 0 a 21.291388,21.291388 0 0 1 21.291,-21.2915 z"
         fill="#2f2e41"
         id="path23682"
         style="stroke-width:1.53375" />
      <path
         d="m 11688.51,311.07452 a 14.381959,14.381959 0 0 1 3.03,-21.84365 l -5.431,-32.41331 18.893,-8.10448 7.026,45.88162 a 14.459858,14.459858 0 0 1 -23.518,16.47982 z"
         fill="#ffb8b8"
         id="path23684"
         style="stroke-width:1.53375" />
      <path
         d="m 11540.598,295.75881 a 14.381959,14.381959 0 0 0 0.62,-22.0441 l 10.71,-31.07068 -17.293,-11.1143 -14.511,44.09035 a 14.459858,14.459858 0 0 0 20.474,20.13873 z"
         fill="#ffb8b8"
         id="path23686"
         style="stroke-width:1.53375" />
      <circle
         cx="11630.4"
         cy="29.192873"
         r="37.670441"
         fill="#ffb8b8"
         id="circle23688"
         style="stroke-width:1.53375" />
      <path
         d="m 11539.434,272.51363 a 6.9051806,6.9051806 0 0 1 -1.911,-0.2704 l -10.979,-3.15216 a 6.9135856,6.9135856 0 0 1 -4.736,-8.51414 l 22.66,-80.00369 31.598,-77.56963 c 3.141,-7.711382 9.706,-12.768612 17.132,-13.197912 a 17.555944,17.555944 0 0 1 16.531,9.62719 v 0 a 23.958438,23.958438 0 0 1 0.547,21.120482 l -35.916,78.54402 -28.553,69.14675 a 6.8983861,6.8983861 0 0 1 -6.373,4.26949 z"
         fill="#6c63ff"
         id="path23690"
         style="fill:#237e93;fill-opacity:1;stroke-width:1.53375" />
      <path
         d="m 11651.657,60.783958 -20.93,0.37224 a 13.916527,13.916527 0 0 1 -13.644,-17.775682 32.403502,32.403502 0 0 0 1.006,-4.620877 23.351196,23.351196 0 0 0 0.138,-5.143426 7.595122,7.595122 0 0 0 -14.653,-2.160131 v 0 c -3.52,0.05061 -11.017,-1.09709 -14.537,-1.046937 -7.473,-19.15621 8.811,-44.223027 26.34,-53.638095 17.87,-9.598121 41.067,0.166719 47.918,20.1713985 9.506,0.170859 17.23,9.547123 18.455,20.1017665 1.226,10.554796 -3.116,21.576006 -9.759,29.665455 -6.642,8.089602 -15.365,13.986098 -20.331,14.074288 z"
         fill="#2f2e41"
         id="path23692"
         style="stroke-width:1.53375" />
      <path
         d="m 11582.856,538.58079 a 6.9241224,6.9241224 0 0 1 -6.842,-6.15003 l -7.766,-261.09827 97.834,6.96414 0.08,0.62899 c 22.109,185.06607 14.551,249.12936 14.473,249.75467 a 6.899291,6.899291 0 0 1 -7.785,6.44573 l -21.62,0.51825 a 6.8986009,6.8986009 0 0 1 -6.118,-6.58883 l -20.203,-189.11071 a 2.1571404,2.1571404 0 0 0 -2.248,-1.61995 2.2433371,2.2433371 0 0 0 -2.207,1.80553 l -7.806,189.73035 a 6.8722204,6.8722204 0 0 1 -6.198,7.16322 l -22.901,1.52255 a 6.8389841,6.8389841 0 0 1 -0.688,0.0337 z"
         fill="#2f2e41"
         id="path23694"
         style="stroke-width:1.53375" />
      <path
         d="m 11623.453,302.53031 c -0.586,0 -1.171,-0.0153 -1.756,-0.0276 -28.132,-0.84709 -50.142,-22.13077 -56.217,-28.63432 a 6.868294,6.868294 0 0 1 -1.658,-6.28392 l 16.229,-68.65702 -4.306,-59.68888 a 58.848867,58.848867 0 0 1 16.114,-45.450032 48.563781,48.563781 0 0 1 37.402,-15.1315 c 27.385,1.30675 48.989,25.784612 49.186,55.724912 0.302,46.37273 -1.063,49.55848 -1.511,50.60542 -13.667,31.89721 -6.202,76.671 -3.59,89.6344 a 6.9270212,6.9270212 0 0 1 -2.051,6.42257 c -15.031,14.26217 -31.12,21.48459 -47.842,21.48536 z"
         fill="#6c63ff"
         id="path23696"
         style="fill:#237e93;fill-opacity:1;stroke-width:1.53375" />
      <path
         d="m 11694.105,285.07779 a 6.896653,6.896653 0 0 1 -6.72,-5.35907 l -16.743,-72.94062 -22.439,-83.37058 a 23.958822,23.958822 0 0 1 4.029,-20.74011 17.56987,17.56987 0 0 1 17.894,-6.763992 c 7.252,1.65047 12.891,7.722582 14.716,15.847462 l 18.335,81.63989 9.146,82.73177 a 6.9150273,6.9150273 0 0 1 -6.079,7.61475 l -11.349,1.29495 a 6.8820517,6.8820517 0 0 1 -0.79,0.046 z"
         fill="#6c63ff"
         id="path23698"
         style="fill:#237e93;fill-opacity:1;stroke-width:1.53375" />
    </g>
  </g>
</svg>
